<?xml version="1.0" encoding="UTF-8" standalone="no"?>
<!-- Created with Inkscape (http://www.inkscape.org/) -->

<svg
   xmlns:dc="http://purl.org/dc/elements/1.1/"
   xmlns:cc="http://creativecommons.org/ns#"
   xmlns:rdf="http://www.w3.org/1999/02/22-rdf-syntax-ns#"
   xmlns:svg="http://www.w3.org/2000/svg"
   xmlns="http://www.w3.org/2000/svg"
   xmlns:sodipodi="http://sodipodi.sourceforge.net/DTD/sodipodi-0.dtd"
   xmlns:inkscape="http://www.inkscape.org/namespaces/inkscape"
   id="svg2"
   version="1.1"
   inkscape:version="0.48.4 r9939"
   width="1488.1875"
   height="1052.3625"
   xml:space="preserve"
   sodipodi:docname="myLogo.ai"><metadata
     id="metadata8"><rdf:RDF><cc:Work
         rdf:about=""><dc:format>image/svg+xml</dc:format><dc:type
           rdf:resource="http://purl.org/dc/dcmitype/StillImage" /><dc:title></dc:title></cc:Work></rdf:RDF></metadata><defs
     id="defs6"><clipPath
       clipPathUnits="userSpaceOnUse"
       id="clipPath16"><path
         d="m 0,841.89 1190.55,0 L 1190.55,0 0,0 0,841.89 z"
         id="path18" /></clipPath><clipPath
       clipPathUnits="userSpaceOnUse"
       id="clipPath356"><path
         d="m 0,841.89 1190.55,0 L 1190.55,0 0,0 0,841.89 z"
         id="path358" /></clipPath></defs><sodipodi:namedview
     pagecolor="#ffffff"
     bordercolor="#666666"
     borderopacity="1"
     objecttolerance="10"
     gridtolerance="10"
     guidetolerance="10"
     inkscape:pageopacity="0"
     inkscape:pageshadow="2"
     inkscape:window-width="640"
     inkscape:window-height="480"
     id="namedview4"
     showgrid="false"
     inkscape:zoom="0.20897904"
     inkscape:cx="744.09375"
     inkscape:cy="526.18127"
     inkscape:window-x="78"
     inkscape:window-y="24"
     inkscape:window-maximized="0"
     inkscape:current-layer="g10" /><g
     id="g10"
     inkscape:groupmode="layer"
     inkscape:label="myLogo"
     transform="matrix(1.25,0,0,-1.25,0,1052.3625)"><g
       id="g12"
       transform="translate(184,0)"><g
         id="g14"
         clip-path="url(#clipPath16)"><g
           id="g20"
           transform="translate(759.0449,451.9687)"><path
             d="m 0,0 c 0,-201.956 -156.032,-365.673 -348.507,-365.673 -192.476,0 -348.508,163.717 -348.508,365.673 0,201.954 156.032,365.67 348.508,365.67 C -156.032,365.67 0,201.954 0,0"
             style="fill:#373535;fill-opacity:1;fill-rule:nonzero;stroke:none"
             id="path22"
             inkscape:connector-curvature="0" /></g><g
           id="g24"
           transform="translate(765.501,454.6343)"><path
             d="M 0,0 C -0.043,-3.369 1.056,-2.159 1.265,-2.666 0.933,2.984 -0.291,-0.148 0,0"
             style="fill:#373535;fill-opacity:1;fill-rule:nonzero;stroke:none"
             id="path26"
             inkscape:connector-curvature="0" /></g><g
           id="g28"
           transform="translate(759.1133,509.7202)"><path
             d="M 0,0 0.647,-0.895 -1.843,6.966 0,0 z"
             style="fill:#373535;fill-opacity:1;fill-rule:nonzero;stroke:none"
             id="path30"
             inkscape:connector-curvature="0" /></g><g
           id="g32"
           transform="translate(748.9863,560.4917)"><path
             d="m 0,0 c -0.645,-2.741 0.615,-7.237 2.165,-12.236 0.392,-1.248 0.793,-2.53 1.196,-3.818 0.343,-1.303 0.676,-2.617 0.986,-3.917 0.622,-2.599 1.121,-5.148 1.389,-7.446 l -0.194,-1.594 2.602,-3.715 c -0.618,2.74 -1.374,5.665 -2.088,8.652 -0.743,2.98 -1.446,6.022 -2.234,8.934 C 2.119,-9.344 0.604,-3.941 0,0"
             style="fill:#373535;fill-opacity:1;fill-rule:nonzero;stroke:none"
             id="path34"
             inkscape:connector-curvature="0" /></g><g
           id="g36"
           transform="translate(746.9014,589.2002)"><path
             d="M 0,0 C -0.564,-2.06 -2.705,5.485 1.588,-6.406 1.516,-5.758 1.527,-5.558 1.505,-5.175 1.156,-4.09 0.702,-2.588 0,0"
             style="fill:#373535;fill-opacity:1;fill-rule:nonzero;stroke:none"
             id="path38"
             inkscape:connector-curvature="0" /></g><g
           id="g40"
           transform="translate(748.4062,584.0249)"><path
             d="M 0,0 C 1.689,-5.301 -0.178,3.802 0,0"
             style="fill:#373535;fill-opacity:1;fill-rule:nonzero;stroke:none"
             id="path42"
             inkscape:connector-curvature="0" /></g><g
           id="g44"
           transform="translate(739.7764,608.249)"><path
             d="m 0,0 3.501,-6.498 c 0.149,1.717 -1.872,8 -0.57,5.902 C -0.135,6.343 -0.339,4.521 0,0"
             style="fill:#373535;fill-opacity:1;fill-rule:nonzero;stroke:none"
             id="path46"
             inkscape:connector-curvature="0" /></g><g
           id="g48"
           transform="translate(735.2158,613.8203)"><path
             d="M 0,0 1.733,-3.372 C 1.784,-2.626 1.563,-1.62 0,0"
             style="fill:#373535;fill-opacity:1;fill-rule:nonzero;stroke:none"
             id="path50"
             inkscape:connector-curvature="0" /></g><g
           id="g52"
           transform="translate(740.6523,603.2905)"><path
             d="M 0,0 -3.703,7.158 C -3.822,5.944 -4.74,5.431 -2.085,3.839 -3.195,4.075 -1.788,2.959 0,0"
             style="fill:#373535;fill-opacity:1;fill-rule:nonzero;stroke:none"
             id="path54"
             inkscape:connector-curvature="0" /></g><g
           id="g56"
           transform="translate(741.7764,598.8359)"><path
             d="M 0,0 C 0.643,-4.164 1.88,-9.319 -1.354,-2.756 3.35,-15.816 4.616,-13.215 0,0"
             style="fill:#373535;fill-opacity:1;fill-rule:nonzero;stroke:none"
             id="path58"
             inkscape:connector-curvature="0" /></g><g
           id="g60"
           transform="translate(745.7432,562.2861)"><path
             d="M 0,0 C 0,0 0.054,-0.333 0.134,-0.833 0.192,-1.339 0.27,-2.014 0.348,-2.689 L 0.664,-5.381 2.639,-9.639 C 1.636,-7.521 0.767,0.571 0,0"
             style="fill:#373535;fill-opacity:1;fill-rule:nonzero;stroke:none"
             id="path62"
             inkscape:connector-curvature="0" /></g><g
           id="g64"
           transform="translate(724.0674,651.9019)"><path
             d="M 0,0 C -0.479,-0.01 -0.712,-0.871 -0.909,-1.852 -1.135,-2.85 -1.332,-3.972 -1.696,-4.498 L 1.427,-8.999 C 1.096,-7.579 0.493,-5.585 0.1,-3.815 -0.088,-2.924 -0.219,-2.087 -0.253,-1.416 -0.304,-0.754 -0.239,-0.249 0,0"
             style="fill:#373535;fill-opacity:1;fill-rule:nonzero;stroke:none"
             id="path66"
             inkscape:connector-curvature="0" /></g><g
           id="g68"
           transform="translate(722.3711,647.4038)"><path
             d="M 0,0 C 0,0 -1.127,1.705 -2.404,3.317 -3.655,4.941 -4.907,6.565 -4.907,6.565 -3.341,3.268 -2.208,1.447 -1.489,0.496 -0.763,-0.451 -0.317,-0.447 0,0"
             style="fill:#373535;fill-opacity:1;fill-rule:nonzero;stroke:none"
             id="path70"
             inkscape:connector-curvature="0" /></g><g
           id="g72"
           transform="translate(731.3633,613.4849)"><path
             d="m 0,0 3.514,-5.63 c 1.744,-2.838 3.489,-5.677 3.489,-5.677 0,0 -1.982,3.428 -3.963,6.855 C 2.048,-2.748 1.056,-1.043 0.312,0.235 -0.5,1.478 -1.042,2.307 -1.042,2.307 L 0,0 z"
             style="fill:#373535;fill-opacity:1;fill-rule:nonzero;stroke:none"
             id="path74"
             inkscape:connector-curvature="0" /></g><g
           id="g76"
           transform="translate(709.8535,680.3047)"><path
             d="M 0,0 C 0,0 1.046,-0.709 2.092,-1.419 3.129,-2.141 4.167,-2.863 4.167,-2.863 L 0.722,-0.126 C -1.019,1.212 -2.76,2.55 -2.76,2.55 L 0,0 z"
             style="fill:#373535;fill-opacity:1;fill-rule:nonzero;stroke:none"
             id="path78"
             inkscape:connector-curvature="0" /></g><g
           id="g80"
           transform="translate(698.9502,698.4893)"><path
             d="M 0,0 C 1.75,-0.856 1.864,0.75 1.923,2.304 1.97,3.845 1.901,5.283 3.43,4.097 0.058,8.868 -4.112,11.906 -7.933,14.498 -4.59,11.131 -2.031,6.637 0,0"
             style="fill:#373535;fill-opacity:1;fill-rule:nonzero;stroke:none"
             id="path82"
             inkscape:connector-curvature="0" /></g><g
           id="g84"
           transform="translate(684.7666,717.4453)"><path
             d="M 0,0 C 1.808,-1.544 3.999,-2.874 6.251,-4.458 4.483,-2.661 2.473,-1.127 0,0"
             style="fill:#373535;fill-opacity:1;fill-rule:nonzero;stroke:none"
             id="path86"
             inkscape:connector-curvature="0" /></g><g
           id="g88"
           transform="translate(711.4375,666.585)"><path
             d="M 0,0 C 0.177,0.87 0.86,2.765 -0.826,7.204 L -1.56,2.828 C -1.084,1.966 -0.546,0.991 0,0"
             style="fill:#373535;fill-opacity:1;fill-rule:nonzero;stroke:none"
             id="path90"
             inkscape:connector-curvature="0" /></g><g
           id="g92"
           transform="translate(709.8604,669.2656)"><path
             d="M 0,0 0.018,0.147 C -1.649,3.239 -2.805,5.382 -3.3,6.301 -2.884,5.506 -1.89,3.608 0,0"
             style="fill:#373535;fill-opacity:1;fill-rule:nonzero;stroke:none"
             id="path94"
             inkscape:connector-curvature="0" /></g><g
           id="g96"
           transform="translate(711.8291,665.8716)"><path
             d="M 0,0 C -0.145,0.263 -0.25,0.456 -0.392,0.713 -0.462,0.297 -0.444,0.087 0,0"
             style="fill:#373535;fill-opacity:1;fill-rule:nonzero;stroke:none"
             id="path98"
             inkscape:connector-curvature="0" /></g><g
           id="g100"
           transform="translate(724.6406,633.625)"><path
             d="M 0,0 C -1.586,1.84 -3.775,4.798 -5.274,6.089 -6.77,7.386 -7.576,7.004 -6.302,2.319 -3.401,0.057 -4.809,5.495 0,0"
             style="fill:#373535;fill-opacity:1;fill-rule:nonzero;stroke:none"
             id="path102"
             inkscape:connector-curvature="0" /></g><g
           id="g104"
           transform="translate(710.8926,660.5557)"><path
             d="m 0,0 3.531,-7.907 c 0.492,0.488 0.615,2.383 2.308,0.645 0,0 -1.452,1.825 -2.903,3.649 C 1.468,-1.806 0,0 0,0"
             style="fill:#373535;fill-opacity:1;fill-rule:nonzero;stroke:none"
             id="path106"
             inkscape:connector-curvature="0" /></g><g
           id="g108"
           transform="translate(708.1328,663.7793)"><path
             d="M 0,0 C 0,0 0.18,-0.196 0.449,-0.491 0.718,-0.787 1.083,-1.176 1.412,-1.589 L 2.76,-3.224 c 0,0 -0.326,0.737 -0.653,1.474 -0.164,0.368 -0.327,0.737 -0.45,1.014 -0.134,0.269 -0.222,0.449 -0.222,0.449 L 0,0 z"
             style="fill:#373535;fill-opacity:1;fill-rule:nonzero;stroke:none"
             id="path110"
             inkscape:connector-curvature="0" /></g><g
           id="g112"
           transform="translate(690.874,702.7397)"><path
             d="M 0,0 C -1.631,1.119 -3.063,2.506 -4.445,4.083 -5.848,5.643 -7.111,7.465 -8.635,9.247 -6.196,4.708 -3.573,0.169 -0.747,-3.845 0.458,-3.755 3.117,-4.414 0,0"
             style="fill:#373535;fill-opacity:1;fill-rule:nonzero;stroke:none"
             id="path114"
             inkscape:connector-curvature="0" /></g><g
           id="g116"
           transform="translate(700.2266,686.4189)"><path
             d="M 0,0 C -0.193,0.182 -0.397,0.447 -0.582,0.614 -0.518,0.019 -0.367,-0.383 0,0"
             style="fill:#373535;fill-opacity:1;fill-rule:nonzero;stroke:none"
             id="path118"
             inkscape:connector-curvature="0" /></g><g
           id="g120"
           transform="translate(652.9346,748.2881)"><path
             d="m 0,0 c 0.014,-0.375 -0.037,-0.768 -0.03,-1.157 0.21,0.147 0.4,0.298 0.621,0.431 L 0,0 z"
             style="fill:#373535;fill-opacity:1;fill-rule:nonzero;stroke:none"
             id="path122"
             inkscape:connector-curvature="0" /></g><g
           id="g124"
           transform="translate(690.1279,697.8198)"><path
             d="M 0,0 C 0.812,-1.747 1.748,-2.909 2.619,-3.869 3.504,-4.816 4.437,-5.475 5.391,-6.088 4.52,-4.991 3.647,-3.84 2.772,-2.632 1.847,-1.462 0.921,-0.231 -0.001,1.075 -0.544,1.037 -0.817,0.888 0,0"
             style="fill:#373535;fill-opacity:1;fill-rule:nonzero;stroke:none"
             id="path126"
             inkscape:connector-curvature="0" /></g><g
           id="g128"
           transform="translate(675.8574,726.9951)"><path
             d="M 0,0 C 0.597,-2.182 1.443,-4.472 2.398,-6.796 2.11,-4.449 1.137,0.099 0,0"
             style="fill:#373535;fill-opacity:1;fill-rule:nonzero;stroke:none"
             id="path130"
             inkscape:connector-curvature="0" /></g><g
           id="g132"
           transform="translate(699.6621,688.624)"><path
             d="M 0,0 C 0.138,-0.131 0.271,-0.244 0.404,-0.4 0.29,1.055 0.11,0.729 0,0"
             style="fill:#373535;fill-opacity:1;fill-rule:nonzero;stroke:none"
             id="path134"
             inkscape:connector-curvature="0" /></g><g
           id="g136"
           transform="translate(699.6621,688.624)"><path
             d="M 0,0 C -1.368,1.397 -2.784,2.233 -4.144,3.108 -2.733,1.315 -1.346,-0.29 -0.018,-1.591 -0.088,-1.064 -0.067,-0.469 0,0"
             style="fill:#373535;fill-opacity:1;fill-rule:nonzero;stroke:none"
             id="path138"
             inkscape:connector-curvature="0" /></g><g
           id="g140"
           transform="translate(625.8652,737.8667)"><path
             d="m 0,0 c 0.716,0.364 2.711,-1.142 6.342,-2.221 1.641,-0.743 3.168,-1.993 4.553,-3.512 0.685,-0.767 1.32,-1.619 1.881,-2.546 0.282,-0.465 0.544,-0.948 0.786,-1.449 0.12,-0.251 0.235,-0.506 0.344,-0.766 0.097,-0.273 0.309,-0.42 0.454,-0.637 0.205,-0.146 0.4,-0.286 0.593,-0.406 0.242,-0.069 0.482,-0.123 0.717,-0.163 0.472,-0.079 0.932,-0.101 1.378,-0.071 0.892,0.062 1.732,0.332 2.516,0.779 1.57,0.895 2.917,2.495 4.02,4.555 2.203,4.104 3.45,10.119 3.455,15.702 -0.681,-0.56 -1.293,-1.14 -2.676,-1.003 -0.692,0.068 -1.576,0.314 -2.761,0.823 -1.196,0.497 -2.637,1.318 -4.623,2.329 0.395,-1.878 2.766,-6.433 4.215,-9.992 1.429,-3.596 1.872,-6.27 -1.878,-5.095 -4.675,3.155 -6.078,4.996 -6.598,6.802 -0.55,1.768 -0.24,3.44 -1.526,6.178 C 11.193,5.697 7.305,6.672 2.978,7.379 0.815,7.74 -1.454,8.046 -3.389,7.746 -4.355,7.597 -5.239,7.297 -5.982,6.784 -6.062,6.737 -6.196,6.614 -6.226,6.62 -6.265,6.611 -6.301,6.601 -6.334,6.586 -6.401,6.559 -6.456,6.52 -6.498,6.468 -6.583,6.366 -6.617,6.214 -6.593,6.005 c 0,0 1.969,-1.358 3.939,-2.715 C -1.668,2.608 -0.682,1.927 0.058,1.417 0.405,1.133 0.793,1.016 1.037,0.901 1.288,0.793 1.431,0.731 1.431,0.731 1.198,0.383 1.081,0.528 0.792,0.584 0.526,0.669 0.186,0.779 -0.078,0.863 -0.618,1.012 -0.917,0.966 0,0"
             style="fill:#373535;fill-opacity:1;fill-rule:nonzero;stroke:none"
             id="path142"
             inkscape:connector-curvature="0" /></g><g
           id="g144"
           transform="translate(663.6309,734.209)"><path
             d="M 0,0 2.622,-2.452 C 1.543,-0.636 0.797,1.11 0.15,3.214 -0.173,4.266 -0.471,5.407 -0.773,6.695 -1.089,7.97 -1.436,9.364 -1.802,10.98 c -5.272,3.261 -7.128,3.054 -8.303,2.373 L -4.365,6.46 C -2.907,4.771 -1.57,2.967 -0.534,1.652 0.494,0.33 1.179,-0.552 1.179,-0.552 L 0,0 z"
             style="fill:#373535;fill-opacity:1;fill-rule:nonzero;stroke:none"
             id="path146"
             inkscape:connector-curvature="0" /></g><g
           id="g148"
           transform="translate(676.2744,719.0894)"><path
             d="m 0,0 c -2.217,-0.139 -4.933,1.193 -7.083,1.657 -1.066,0.242 -2.021,0.24 -2.678,-0.24 -0.659,-0.481 -0.986,-1.408 -0.937,-3.13 6.685,-7.762 6.853,-3.447 11.849,-7.272 -5.487,6.29 -4.371,5.697 -2.61,4.885 1.76,-0.802 4.125,-1.908 1.223,3.705 C 2.236,-2.639 4.166,-4.928 5.965,-7.103 4.473,-4.363 3.127,-1.617 1.981,1.109 2.011,0.927 2.029,0.795 2.042,0.636 L 2.099,0.58 C 2.08,0.562 2.063,0.571 2.045,0.554 2.14,-0.354 2.075,-0.737 1.782,0.111 1.714,0.126 1.578,0.282 1.514,0.348 1.062,0.09 0.54,0.039 0.016,0.014 c -2.381,4.482 0.256,1.29 1.498,0.334 0.169,0.076 0.375,0.086 0.531,0.206 0.006,0.028 10e-4,0.055 -0.003,0.082 0,0 -2.895,3.128 -5.868,6.176 -3.098,2.928 -6.195,5.856 -6.195,5.856 C -8.141,9.454 -5.035,6.198 0,0"
             style="fill:#373535;fill-opacity:1;fill-rule:nonzero;stroke:none"
             id="path150"
             inkscape:connector-curvature="0" /></g><g
           id="g152"
           transform="translate(709.8145,641.0811)"><path
             d="M 0,0 C -0.05,0.547 0.112,0.616 0.249,0.738 -0.122,1.126 -0.423,1.366 -0.5,1.305 -0.572,1.245 -0.43,0.878 0,0"
             style="fill:#373535;fill-opacity:1;fill-rule:nonzero;stroke:none"
             id="path154"
             inkscape:connector-curvature="0" /></g><g
           id="g156"
           transform="translate(707.75,647.5645)"><path
             d="M 0,0 C 0.898,-0.83 2.282,-1.154 3.959,-4.612 4.866,-7.92 2.936,-5.181 2.313,-5.745 3.977,-7.423 7.597,-12.029 5.261,-5.016 L 4.444,-4.162 C 3.188,-1.115 2.176,2.638 1.637,5.589 1.091,8.533 0.989,10.647 1.422,10.234 0.334,7.273 -0.273,4.894 0,0"
             style="fill:#373535;fill-opacity:1;fill-rule:nonzero;stroke:none"
             id="path158"
             inkscape:connector-curvature="0" /></g><g
           id="g160"
           transform="translate(692.0195,682.8037)"><path
             d="m 0,0 c 0,0 -2.238,2.6 -4.477,5.2 -0.565,0.644 -1.116,1.299 -1.66,1.89 -0.558,0.581 -1.079,1.123 -1.525,1.587 -0.895,0.926 -1.491,1.543 -1.491,1.543 0,0 0.498,-1.825 0.997,-3.65 0.263,-0.896 0.483,-1.823 0.648,-2.517 0.168,-0.69 0.28,-1.149 0.28,-1.149 l 1.121,1.315 C -2.181,-2.523 -1.541,0.058 0,0"
             style="fill:#373535;fill-opacity:1;fill-rule:nonzero;stroke:none"
             id="path162"
             inkscape:connector-curvature="0" /></g><g
           id="g164"
           transform="translate(653.3145,751.1782)"><path
             d="m 0,0 4.381,2.027 c 0,0 -2.464,0.404 -4.948,0.732 -1.246,0.162 -2.479,0.329 -3.433,0.415 -0.96,0.077 -1.6,0.129 -1.6,0.129 0,0 1.461,-0.748 2.829,-1.61 C -1.385,0.847 0,0 0,0"
             style="fill:#373535;fill-opacity:1;fill-rule:nonzero;stroke:none"
             id="path166"
             inkscape:connector-curvature="0" /></g><g
           id="g168"
           transform="translate(640.0303,764.4868)"><path
             d="m 0,0 3.263,2.937 c 0,0 -1.285,0.398 -2.572,0.797 -1.288,0.384 -2.577,0.767 -2.577,0.767 L 0,0 z"
             style="fill:#373535;fill-opacity:1;fill-rule:nonzero;stroke:none"
             id="path170"
             inkscape:connector-curvature="0" /></g><g
           id="g172"
           transform="translate(119.4263,274.7871)"><path
             d="M 0,0 2.312,-3.062 C 1.301,-1.569 0.583,-0.646 0,0"
             style="fill:#373535;fill-opacity:1;fill-rule:nonzero;stroke:none"
             id="path174"
             inkscape:connector-curvature="0" /></g><g
           id="g176"
           transform="translate(107.1943,299.4355)"><path
             d="M 0,0 -1.172,0.208 C -0.17,-0.741 0.402,-1.052 0,0"
             style="fill:#373535;fill-opacity:1;fill-rule:nonzero;stroke:none"
             id="path178"
             inkscape:connector-curvature="0" /></g><g
           id="g180"
           transform="translate(171.9302,838.9053)"><path
             d="m 0,0 c -7.078,4.088 -15.69,9.618 -21.299,12.418 -5.627,2.828 -8.021,2.818 -2.651,-3.875 L -12.334,-3.839 C -9.483,1.023 -4.88,1.368 0,0"
             style="fill:#373535;fill-opacity:1;fill-rule:nonzero;stroke:none"
             id="path182"
             inkscape:connector-curvature="0" /></g><g
           id="g184"
           transform="translate(69.0483,522.1914)"><path
             d="M 0,0 C 0.312,0.496 0.637,1.011 0.958,1.521 0.698,2.275 0.425,3.014 0.205,3.716 L 0.164,3.847 0.154,3.88 C 0.144,3.892 0.068,3.917 0.029,3.935 L -0.258,4.053 C -0.641,4.21 -1.022,4.366 -1.4,4.521 c -0.761,0.313 -1.512,0.622 -2.254,0.927 -1.503,0.62 -2.968,1.224 -4.39,1.811 1.842,-1.224 3.81,-2.531 5.866,-3.898 0.511,-0.336 1.027,-0.675 1.549,-1.018 l 0.39,-0.256 C -0.122,2.004 -0.197,1.958 -0.167,1.891 L -0.134,1.518 C -0.09,1.02 -0.045,0.513 0,0"
             style="fill:#373535;fill-opacity:1;fill-rule:nonzero;stroke:none"
             id="path186"
             inkscape:connector-curvature="0" /></g><g
           id="g188"
           transform="translate(77.6431,516.5947)"><path
             d="M 0,0 -2.667,-7.026 C -1.885,-5.468 -1.009,-3.208 0,0"
             style="fill:#373535;fill-opacity:1;fill-rule:nonzero;stroke:none"
             id="path190"
             inkscape:connector-curvature="0" /></g><g
           id="g192"
           transform="translate(218.311,163.666)"><path
             d="M 0,0 4.731,-0.969 C -0.718,3.192 1.044,0.503 0,0"
             style="fill:#373535;fill-opacity:1;fill-rule:nonzero;stroke:none"
             id="path194"
             inkscape:connector-curvature="0" /></g><g
           id="g196"
           transform="translate(13.1177,232.3799)"><path
             d="M 0,0 C 4.674,-1.045 8.971,-0.229 12.797,1.878 8.191,2.93 4.017,2.793 0,0"
             style="fill:#373535;fill-opacity:1;fill-rule:nonzero;stroke:none"
             id="path198"
             inkscape:connector-curvature="0" /></g><g
           id="g200"
           transform="translate(695.3418,254.7412)"><path
             d="M 0,0 C 0.26,0.312 0.536,0.708 0.785,0.983 0.702,1.18 0.402,0.711 0,0"
             style="fill:#373535;fill-opacity:1;fill-rule:nonzero;stroke:none"
             id="path202"
             inkscape:connector-curvature="0" /></g><g
           id="g204"
           transform="translate(761.4072,403.6807)"><path
             d="M 0,0 C -0.092,-1.642 -0.364,-4.306 -0.606,-6.82 -0.394,-5.609 -0.193,-3.552 0,0"
             style="fill:#373535;fill-opacity:1;fill-rule:nonzero;stroke:none"
             id="path206"
             inkscape:connector-curvature="0" /></g><g
           id="g208"
           transform="translate(582.5068,816.9663)"><path
             d="M 0,0 C 3.566,-2.098 0.864,0.248 0,0"
             style="fill:#373535;fill-opacity:1;fill-rule:nonzero;stroke:none"
             id="path210"
             inkscape:connector-curvature="0" /></g><g
           id="g212"
           transform="translate(586.5596,784.0449)"><path
             d="M 0,0 C -1.021,-0.13 -1.97,-0.541 -2.755,-1.712 -1.758,-0.608 -0.847,-0.1 0,0"
             style="fill:#373535;fill-opacity:1;fill-rule:nonzero;stroke:none"
             id="path214"
             inkscape:connector-curvature="0" /></g><g
           id="g216"
           transform="translate(398.2539,817.0527)"><path
             d="M 0,0 C -0.108,-0.001 -0.195,-0.001 -0.319,-0.002 0.79,-0.316 0.598,-0.256 0,0"
             style="fill:#373535;fill-opacity:1;fill-rule:nonzero;stroke:none"
             id="path218"
             inkscape:connector-curvature="0" /></g><g
           id="g220"
           transform="translate(586.1943,810.6841)"><path
             d="M 0,0 C -0.886,1.599 -2.029,3.24 -3.398,4.812 -2.935,3.856 -1.917,2.345 0,0"
             style="fill:#373535;fill-opacity:1;fill-rule:nonzero;stroke:none"
             id="path222"
             inkscape:connector-curvature="0" /></g><g
           id="g224"
           transform="translate(586.9419,813.8506)"><path
             d="M 0,0 C 1.021,-1.106 1.854,-1.913 2.635,-2.698 3.56,-2.087 3.508,-1.218 0,0"
             style="fill:#373535;fill-opacity:1;fill-rule:nonzero;stroke:none"
             id="path226"
             inkscape:connector-curvature="0" /></g><g
           id="g228"
           transform="translate(577.5698,819.9663)"><path
             d="M 0,0 C 1.015,-0.618 1.961,-1.283 2.823,-2.04 3.676,-2.814 4.47,-3.632 5.226,-4.47 4.767,-3.597 4.658,-3.066 4.937,-3 4.421,-2.679 3.799,-2.291 3.004,-1.796 2.201,-1.315 1.222,-0.73 0,0"
             style="fill:#373535;fill-opacity:1;fill-rule:nonzero;stroke:none"
             id="path230"
             inkscape:connector-curvature="0" /></g><g
           id="g232"
           transform="translate(456.688,94.6836)"><path
             d="M 0,0 C 0.245,-0.021 0.525,-0.021 0.794,-0.058 4.327,1.093 2.749,0.779 0,0"
             style="fill:#373535;fill-opacity:1;fill-rule:nonzero;stroke:none"
             id="path234"
             inkscape:connector-curvature="0" /></g><g
           id="g236"
           transform="translate(159.8354,690.9331)"><path
             d="M 0,0 C 0.09,0.145 0.104,0.25 0.181,0.385 0.057,0.271 -0.1,0.127 -0.212,0.023 L 0,0 z"
             style="fill:#373535;fill-opacity:1;fill-rule:nonzero;stroke:none"
             id="path238"
             inkscape:connector-curvature="0" /></g><g
           id="g240"
           transform="translate(152.9233,679.9697)"><path
             d="m 0,0 c 1.372,5.913 3.641,8.15 6.7,10.987 l -3.716,0.369 c -1.872,0.172 -3.743,0.343 -3.743,0.343 0,0 0.173,-2.942 0.345,-5.884 C -0.207,2.908 0,0 0,0"
             style="fill:#373535;fill-opacity:1;fill-rule:nonzero;stroke:none"
             id="path242"
             inkscape:connector-curvature="0" /></g><g
           id="g244"
           transform="translate(505.7368,60.5293)"><path
             d="M 0,0 -3.18,1.503 C 1.853,6.194 0.884,3.24 0,0 m 46.19,764.379 c 1.652,0.365 1.999,1.43 1.913,2.761 -1.633,-1.391 -4.417,-0.029 -7.329,2.269 0.078,-2.52 1.1,-4.712 5.416,-5.03 m -10.982,10.029 c -0.162,-0.069 -0.278,-0.124 -0.43,-0.237 -4.921,6.23 -3.216,3.89 0.43,0.237 M -427.769,480.514 c 0.388,-2.123 -0.659,-4.997 -2.327,-8.163 0.333,2.489 1.032,5.246 2.327,8.163 m 13.533,-203.701 c 0.646,-1.163 1.747,-2.855 2.58,-4.536 0.418,-0.84 0.767,-1.68 0.966,-2.453 0.232,-0.76 0.305,-1.456 0.126,-2.025 -0.929,0.457 -1.61,0.963 -2.087,1.543 -0.46,0.586 -0.743,1.237 -0.93,1.97 -0.376,1.466 -0.371,3.253 -0.655,5.501 m 65.228,-116.712 -2.09,4.082 c -0.519,1.015 -1.038,2.032 -1.427,2.795 -0.398,0.752 -0.622,1.286 -0.622,1.286 9.292,-6.374 13.291,-12.977 10.146,-4.817 -2.945,-1.66 -8.754,4.784 -13.907,11.737 -5.439,6.737 -10.177,13.966 -13.421,12.555 l -2.105,5.704 c 0.891,-1.441 1.379,-1.445 2.254,-2.869 -1.89,5.619 -3.874,6.842 -6.536,8.202 -1.311,0.69 -2.743,1.437 -4.283,2.845 -0.77,0.704 -1.567,1.574 -2.388,2.683 -0.822,1.109 -1.689,2.444 -2.447,4.165 -2.036,4.845 -2.882,8.499 -0.477,5.789 0,0 -1.755,2.333 -3.51,4.667 -0.88,1.173 -1.76,2.346 -2.419,3.224 -0.616,0.906 -1.027,1.508 -1.027,1.508 -1.35,3.1 0.086,2.894 1.424,-0.178 0,0 -2.044,3.907 -4.088,7.814 -1.024,1.955 -2.049,3.91 -2.817,5.376 -0.397,0.728 -0.687,1.353 -0.886,1.793 -0.203,0.438 -0.319,0.688 -0.319,0.688 l 0.238,-0.036 c -1.978,1.858 -5.781,6.458 -7.556,8.772 -0.857,4.539 1.576,-1.801 1.92,-0.398 0,0 -1.358,2.098 -2.716,4.196 -0.687,1.047 -1.269,2.141 -1.754,2.944 -0.471,0.808 -0.784,1.347 -0.784,1.347 0.334,4.418 4.625,-2.636 7.171,-8.87 1.424,5.549 0.187,7.166 -1.672,10.022 -0.952,1.413 -2.107,3.109 -3.215,5.694 -0.554,1.292 -1.096,2.806 -1.592,4.613 -0.239,0.906 -0.507,1.872 -0.685,2.945 -0.171,1.075 -0.323,2.232 -0.451,3.48 0,0 0.226,-0.528 0.566,-1.321 0.353,-0.787 0.759,-1.858 1.274,-2.891 1.006,-2.07 2.014,-4.139 2.014,-4.139 0.42,1.722 0.499,3.391 0.361,5.092 -0.113,1.709 -0.348,3.483 -0.718,5.353 -0.696,3.752 -1.825,7.946 -2.084,13.188 -0.35,-1.361 -0.239,-6.667 -0.73,-10.557 -0.473,-3.875 -1.461,-6.292 -3.905,-1.512 -0.201,1.506 -0.54,3.212 -1.215,5.171 -0.337,0.979 -0.76,2.022 -1.291,3.136 -0.535,1.113 -1.071,2.33 -1.796,3.612 2.397,0.746 0.377,5.944 -1.564,12.643 l 3.357,0.352 c -0.743,1.737 -1.28,3.01 -1.815,3.978 -0.533,0.968 -1.035,1.638 -1.534,2.21 -0.998,1.147 -1.982,1.905 -3.188,3.915 -0.722,4.149 -0.571,6.769 0.047,8.646 0.665,1.888 1.691,3.018 2.61,4.179 -0.818,6.599 -1.476,4.168 -2.319,1.987 -0.845,-2.176 -1.87,-4.116 -3.494,3.694 -0.124,2.816 -0.461,5.38 -0.768,7.879 -0.272,2.504 -0.67,4.919 -1.18,7.394 -0.511,2.475 -1.134,5.009 -1.856,7.751 -0.391,1.368 -0.681,2.801 -1.016,4.302 -0.335,1.504 -0.686,3.076 -1.056,4.733 0.619,7.933 2.164,-1.22 2.937,1.665 l -3.186,6.767 c -0.055,1.709 0.816,1.2 1.255,0.944 -1.287,5.819 -3.433,0.303 -4.588,9.584 -0.952,0.604 -1.113,2.118 -0.888,4.219 0.112,1.049 0.323,2.246 0.57,3.546 0.129,0.65 0.263,1.328 0.401,2.027 0.173,0.697 0.352,1.417 0.535,2.154 0.72,2.947 1.427,6.155 1.703,9.348 0.138,1.597 0.168,3.192 0.039,4.754 -0.061,0.78 -0.178,1.553 -0.312,2.313 -0.114,0.758 -0.274,1.505 -0.489,2.237 1.161,2.766 1.981,-1.477 3.354,-0.682 -0.846,7.88 -1.114,11.3 -1.526,14.366 -0.112,0.77 -0.22,1.517 -0.335,2.308 -0.094,0.789 -0.205,1.625 -0.342,2.573 -0.274,1.898 -0.651,4.244 -1.188,7.594 0,0 0.876,2.68 1.751,5.361 0.429,1.338 0.869,2.67 1.27,3.657 0.376,0.99 0.627,1.65 0.627,1.65 -3.848,-7.643 -5.087,3.001 -5.927,12.623 -0.212,-0.335 -0.419,-0.663 -0.622,-0.985 0.153,-0.208 -0.829,-0.206 -1.44,-0.272 -0.669,-0.056 -1.33,-0.112 -1.982,-0.166 -2.607,-0.223 -5.071,-0.453 -7.332,-0.687 -4.523,-0.469 -8.235,-0.958 -10.661,-1.456 0,0 -3.369,4.51 -6.691,9.19 -0.828,1.175 -1.657,2.35 -2.434,3.451 -0.775,1.108 -1.428,2.137 -2.021,3.028 -1.166,1.787 -1.942,2.979 -1.942,2.979 5.33,0.908 15.158,-2.899 27.08,-7.823 -2.235,1.504 -4.455,2.97 -6.533,4.198 3.052,0.775 6.366,0.928 9.869,0.619 1.751,-0.154 3.551,-0.425 5.388,-0.79 0.445,-0.093 0.723,-0.151 1.089,-0.228 0.051,-0.013 0.101,-0.032 0.15,-0.055 0.098,-0.048 0.193,-0.114 0.286,-0.198 0.743,-0.67 1.321,-2.461 1.834,-4.486 -1.02,-1.618 -2.139,-3.21 -3.08,-4.798 1.386,-3.983 3.05,-7.686 5.11,-7.279 -0.225,0.996 -0.25,2.85 -0.101,4.861 0.387,-1.029 0.773,-1.707 1.175,-1.339 0.431,0.422 -0.058,2.047 -0.489,4.555 l 4.357,2.486 -1.28,1.076 3.143,8.983 c 0.391,1.119 0.782,2.237 1.148,3.286 0.368,1.046 0.794,2.001 1.117,2.83 0.668,1.65 1.113,2.75 1.113,2.75 -0.034,3.485 -0.193,6.918 -0.345,10.452 -0.107,1.775 -0.099,3.543 -0.065,5.351 0.026,1.812 0.073,3.667 0.158,5.583 0.085,1.917 0.208,3.895 0.387,5.952 0.09,1.029 0.193,2.078 0.313,3.149 0.133,1.066 0.342,2.133 0.538,3.235 0.816,4.399 1.944,9.179 3.527,14.467 0.581,-6.091 3.668,-2.708 6.513,-4.177 -2.591,-2.132 -3.733,-6.205 -4.772,-10.973 -0.254,-1.193 -0.516,-2.426 -0.785,-3.692 -0.23,-1.277 -0.442,-2.593 -0.71,-3.912 -0.526,-2.642 -1.202,-5.323 -2.216,-7.924 2.113,5.431 3.17,3.731 3.232,2.171 0,0 0.192,1.236 0.48,3.09 0.31,1.849 0.627,4.354 1.114,6.809 1.016,4.918 2.031,9.835 2.031,9.835 1.139,-0.676 1.963,0.137 2.851,1.671 0.444,0.768 0.904,1.716 1.428,2.75 0.518,1.036 1.204,2.116 1.946,3.204 -3.145,-0.821 -2.48,2.9 -0.795,7.872 0.865,2.473 1.881,5.297 2.98,7.924 1.118,2.62 2.13,5.13 2.669,7.133 0.88,-0.149 1.499,-0.857 1.316,-2.608 -0.091,-0.875 -0.383,-2.011 -0.943,-3.471 -0.558,-1.461 -1.426,-3.226 -2.45,-5.466 1.9,2.123 3.034,4.046 3.588,5.985 0.569,1.931 0.64,3.838 0.699,5.759 0.132,3.824 0.115,7.798 4.205,11.72 -1.124,-2.146 -1.984,-3.174 -1.671,-4.412 1.371,5.673 9.064,17.267 8.778,13.652 l -1.12,-2.13 c 4.176,6.83 10.532,17.226 16,26.171 0.663,1.136 1.312,2.25 1.941,3.332 0.622,1.087 1.196,2.163 1.817,3.147 1.201,1.994 2.252,3.858 3.092,5.521 1.682,3.325 2.528,5.849 2.051,6.984 0.525,-0.213 2.788,-4.824 2.904,-6.109 0,0 0.356,1.975 0.892,4.937 0.557,2.965 1.513,6.801 2.427,10.75 0.476,1.975 0.953,3.949 1.399,5.801 l 0.043,0.174 c -0.098,0.153 -0.259,0.36 -0.385,0.538 -0.268,0.368 -0.534,0.735 -0.799,1.1 -0.528,0.731 -1.051,1.455 -1.568,2.172 -1.027,1.438 -2.031,2.844 -3.008,4.213 -1.958,2.753 -3.721,5.311 -5.371,7.709 -6.557,9.565 -10.71,16.054 -10.71,16.054 5.224,-5.637 13.058,-12.412 21.831,-19.793 1.06,-0.889 2.176,-1.825 3.332,-2.795 0.556,-0.464 1.121,-0.937 1.693,-1.416 0.283,-0.236 0.567,-0.473 0.853,-0.713 l 0.21,-0.174 0.031,-0.015 0.062,-0.029 c 0.332,-0.155 0.675,-0.316 1.011,-0.472 0.678,-0.322 1.351,-0.664 1.958,-1.06 2.427,-1.587 3.778,-4.062 0.13,-9.629 2.937,2.483 6.503,5.529 10.93,12.338 -2.091,-1.554 -8.174,-1.252 -6.009,1.631 1.183,0.576 2.173,1.057 3.022,1.47 0.864,0.395 1.581,0.725 2.194,1.027 1.227,0.603 2.055,1.081 2.919,1.62 1.721,1.08 3.618,2.414 9.01,5.445 -3.242,-2.24 -4.244,5.003 0.585,9.031 -0.145,-1.27 4.13,-3.717 2.877,-5.664 0,0 1.893,3.607 3.787,7.215 0.969,1.816 1.94,3.633 2.667,4.995 0.783,1.315 1.305,2.192 1.305,2.192 -2.338,-3.214 2.507,-3.929 6.096,-2.924 -0.951,-0.101 1.595,1.995 4.721,4.495 1.578,1.231 3.237,2.643 4.794,3.785 1.55,1.152 2.875,2.191 3.605,2.91 l -2.958,-1.457 c -0.742,-0.365 -1.484,-0.731 -2.04,-1.004 -0.555,-0.277 -0.907,-0.486 -0.907,-0.486 7.09,4.939 9.389,8.978 11.697,13.154 2.416,3.999 4.892,8.064 12.246,12.832 -0.6,-1.034 -0.766,-3.18 0.169,-4.497 0.946,-1.333 2.926,-1.773 6.837,0.182 0.993,2.18 3.09,7.238 6.64,13.023 0.22,0.365 0.449,0.726 0.695,1.07 l 0.045,0.066 c 0.007,0.012 0.017,0.019 0.022,0.035 l -0.039,0.141 -0.154,0.565 -0.304,1.128 c -0.195,0.746 -0.393,1.496 -0.591,2.251 -0.773,2.996 -1.484,5.968 -2.122,8.888 -1.275,5.84 -2.252,11.473 -2.844,16.682 -1.171,10.384 -0.863,19.234 1.63,24.272 0,0 2.061,-2.278 4.121,-4.555 l 4.063,-4.553 c 0,0 1.649,4.202 3.44,8.383 0.891,2.091 1.81,4.177 2.512,5.739 0.346,0.79 0.655,1.411 0.87,1.852 0.215,0.44 0.338,0.691 0.338,0.691 0.809,-6.778 1.982,-16.601 3.364,-28.171 0.67,-5.445 1.408,-11.165 2.224,-17.013 0.207,-1.455 0.416,-2.925 0.626,-4.408 0.108,-0.736 0.216,-1.476 0.324,-2.218 l 0.041,-0.277 c 0.013,-0.092 0.037,-0.207 0.002,-0.2 l -0.125,-0.137 -0.251,-0.272 c -0.668,-0.724 -1.346,-1.458 -2.029,-2.198 -2.645,-3.111 -5.354,-6.25 -7.898,-9.116 -1.272,-1.433 -2.504,-2.798 -3.669,-4.059 -1.145,-1.295 -2.19,-2.548 -3.169,-3.617 6.108,2.316 2.38,-0.537 10.737,4.227 3.644,0.369 -3.57,-4.367 -5.943,-5.857 0,0 0.298,0.18 0.837,0.46 0.545,0.271 1.323,0.658 2.258,1.122 1.865,0.93 4.353,2.169 6.84,3.408 1.242,0.621 2.483,1.241 3.647,1.822 0.581,0.291 1.144,0.572 1.677,0.839 0.546,0.241 1.062,0.468 1.538,0.678 1.907,0.834 3.178,1.391 3.178,1.391 -1.114,1.154 2.383,3.702 5.964,6.213 0.895,0.631 1.791,1.263 2.626,1.852 0.843,0.573 1.635,1.086 2.275,1.58 1.284,0.977 2.002,1.79 1.558,2.282 0,0 -1.333,-0.773 -3.332,-1.932 -1.991,-1.171 -4.55,-2.928 -7.136,-4.59 -2.567,-1.681 -5.134,-3.361 -7.059,-4.622 -0.97,-0.606 -1.719,-1.226 -2.27,-1.607 -0.542,-0.397 -0.852,-0.624 -0.852,-0.624 -0.566,0.561 -0.333,1.747 0.579,3.327 0.903,1.596 2.577,3.402 4.766,5.426 2.197,2.005 4.949,4.145 8.089,6.193 3.168,1.979 6.809,3.67 10.594,5.131 4.231,0.479 -0.827,-6.123 -0.105,-6.913 0.752,0.879 4.054,2.807 7.384,4.504 3.382,1.556 6.807,2.816 7.614,2.734 l -5.807,-3.794 c 4.353,0.987 7.399,3.144 10.777,5.182 3.338,2.128 7.148,3.73 12.648,3.978 1.791,0.45 4.679,0.354 7.113,0.377 2.455,-0.044 4.487,-0.045 4.581,0.872 -3.304,0.88 -5.943,3.699 -7.337,6.674 -0.175,0.376 -0.331,0.756 -0.465,1.137 -0.065,0.197 -0.127,0.385 -0.188,0.571 -0.333,1.217 -0.658,2.401 -0.986,3.596 -1.468,5.432 -2.789,10.643 -3.896,15.427 -2.214,9.566 -3.563,17.449 -3.561,21.935 0.947,-0.652 7.956,-5.237 15.16,-10.798 7.226,-5.457 14.687,-12.392 17.868,-17.46 0.599,-1.02 1.112,-2.079 1.552,-3.172 0.22,-0.547 0.422,-1.102 0.608,-1.664 0.098,-0.316 0.186,-0.599 0.265,-0.851 0.044,-0.152 0.085,-0.295 0.124,-0.43 0.02,-0.074 0.04,-0.146 0.059,-0.216 l 0.03,-0.106 0.011,-0.014 c 0.24,-0.304 0.228,-0.666 0.049,-1.066 -0.36,-0.799 -1.391,-1.752 -2.442,-2.7 -2.107,-1.895 -4.276,-3.772 -1.51,-4.352 0.059,0.804 3.19,2.382 4.522,2.949 3.95,0.089 -1.143,-2.664 7.081,-0.712 0.443,1.619 4.733,2.115 7.198,2.375 2.46,0.256 3.137,0.233 -3.625,0.638 4.059,0.967 6.277,1.123 8.673,1.219 1.198,0.049 2.443,0.083 3.99,0.196 0.773,0.065 1.623,0.137 2.584,0.218 0.963,0.056 2.035,0.138 3.248,0.255 -1.633,0.772 0.39,2.491 3.925,4.19 0.883,0.425 1.86,0.848 2.895,1.256 0.259,0.1 0.522,0.2 0.787,0.302 0.14,-0.048 0.248,0.361 0.37,0.589 l 0.362,0.779 c 0.487,1.027 0.991,2.009 1.507,2.937 1.033,1.855 2.115,3.493 3.207,4.835 1.094,1.285 2.196,2.279 3.262,2.914 -0.158,-2.27 0.32,-4.885 0.951,-7.254 0.316,-1.185 0.672,-2.309 1.011,-3.302 0.084,-0.243 0.168,-0.483 0.25,-0.72 0.043,-0.154 0.079,-0.155 0.115,-0.166 l 0.107,-0.048 c 0.142,-0.061 0.274,-0.117 0.391,-0.168 4.32,0.054 8.141,0.032 11.688,-0.023 3.546,-0.18 6.82,-0.488 10.053,-0.727 1.616,-0.123 3.222,-0.245 4.848,-0.368 1.624,-0.141 3.272,-0.173 4.958,-0.409 3.375,-0.386 6.943,-0.746 10.94,-1.064 0.709,-0.377 2.972,-0.909 4.626,-1.452 1.651,-0.581 2.685,-1.234 1.001,-1.576 2.32,0.17 4.517,0.782 9.42,0.204 9.124,-3.462 -10.918,1.061 -4.074,-2.572 0.4,0.717 3.607,0.835 7.615,0.772 1.002,-0.024 2.054,-0.049 3.123,-0.074 1.071,-0.028 2.142,-0.164 3.21,-0.24 2.13,-0.18 4.206,-0.348 5.976,-0.436 -0.425,0.666 -1.633,1.213 -3.319,1.664 -0.843,0.225 -1.805,0.427 -2.846,0.607 -1.042,0.175 -2.159,0.364 -3.335,0.417 -4.69,0.317 -10.021,0.297 -13.555,0.276 0.085,0.811 0.932,1.531 2.429,2.14 0.374,0.152 0.789,0.297 1.243,0.435 0.227,0.065 0.463,0.132 0.71,0.201 0.015,0.006 0.03,0.005 0.046,0.016 l 0.058,0.099 0.116,0.198 0.235,0.394 c 0.157,0.256 0.317,0.517 0.48,0.783 1.3,2.073 2.758,4.047 4.359,5.895 1.602,1.847 3.345,3.568 5.215,5.139 0.934,0.782 1.902,1.541 2.894,2.232 0.988,0.664 2.005,1.286 3.047,1.865 4.168,2.312 8.755,3.92 13.559,4.733 3.725,0.181 5.783,-0.756 6.852,-1.919 1.067,-1.182 1.132,-2.7 0.831,-4.164 -0.605,-2.921 -2.65,-5.661 -1.205,-4.823 3.089,-1.3 5.839,-1.913 8.345,-2.065 2.504,-0.152 4.773,0.192 6.826,0.648 4.129,0.996 7.587,3.126 10.869,4.958 3.275,1.814 6.403,3.411 9.769,3.165 3.343,-0.292 6.977,-2.349 11.219,-7.299 2.456,-6.335 0.858,-10.581 -1.356,-14.325 -2.224,-3.716 -5.075,-6.914 -5.387,-10.4 -5.792,0.251 -9.229,3.074 -12.185,6.308 -1.461,1.651 -2.863,3.184 -4.321,4.569 -1.464,1.362 -3.015,2.482 -4.854,2.992 0,0 1.874,-1.879 3.748,-3.757 1.853,-1.834 3.705,-3.668 3.705,-3.668 -4.394,-2.006 -12.076,-2.45 -15.086,1.598 0.263,-0.69 0.649,-1.345 1.146,-1.971 0.249,-0.313 0.525,-0.62 0.827,-0.918 0.151,-0.15 0.309,-0.297 0.473,-0.444 0.168,-0.135 0.324,-0.325 0.53,-0.369 1.568,-0.606 3.49,-1.278 5.678,-2.002 4.415,-1.329 9.727,-3.399 15.458,-5.436 11.442,-4.127 23.992,-9.762 32.336,-14.704 1.679,-0.475 3.978,-1.121 5.485,-1.612 0.383,-0.112 0.723,-0.199 1.001,-0.253 0.287,-0.036 0.443,-0.171 0.771,0.229 0.54,0.574 0.763,1.343 0.514,2.41 0,0 -0.372,0.124 -0.929,0.309 -0.559,0.18 -1.29,0.448 -2.058,0.642 -1.519,0.414 -3.037,0.828 -3.037,0.828 -1.084,4.258 2.55,5.088 5.775,5.483 3.21,0.402 5.917,0.267 3.152,3.748 4.726,-0.143 9.996,-0.008 15.163,-1.153 1.292,-0.284 2.577,-0.646 3.844,-1.105 1.242,-0.503 2.455,-1.122 3.645,-1.847 2.378,-1.454 4.639,-3.376 6.698,-5.875 L 89,715.127 c 0.529,1.084 -0.449,3.228 -2.08,5.106 -1.63,1.873 -3.915,3.466 -5.98,3.293 3.045,0.209 5.408,-4.938 8.267,-9.089 1.456,-2.051 2.93,-4.046 4.724,-5.114 1.791,-1.076 3.869,-1.282 6.399,0.006 l -3.746,9.757 c 4.545,-0.977 10.103,-1.499 15.398,-3.047 2.681,-0.723 5.133,-1.915 7.433,-3.385 2.284,-1.488 4.344,-3.354 6.029,-5.686 0.295,4.524 -0.293,4.845 -1.052,5.486 -0.759,0.669 -1.686,1.615 -2.064,7.905 -0.312,-3.385 -1.75,-3.764 -3.72,-2.777 -1.931,1.045 -4.574,3.251 -7.077,5.46 -2.516,2.188 -4.955,4.288 -6.645,4.741 -1.691,0.463 -2.626,-0.768 -2.15,-5.033 -0.111,3.5 -0.655,6.164 -1.559,8.244 -0.894,2.094 -2.07,3.719 -3.341,5.358 -2.559,3.277 -5.405,6.626 -7.316,14.408 -1.152,-2.729 0.425,-7.126 -6.68,-0.137 -0.766,-0.497 -2.123,-0.858 -2.958,-1.047 -0.203,0.243 -0.263,0.347 -0.424,0.579 0.102,-0.215 0.159,-0.414 0.264,-0.622 -0.549,-0.149 -0.622,-0.211 0.104,-0.224 1.247,-2.489 2.003,-4.908 1.821,-6.758 -3.552,-1.578 -8.382,-0.3 -13.07,1.294 -0.583,0.203 -1.168,0.406 -1.748,0.608 -0.59,0.181 -1.176,0.36 -1.754,0.538 -1.156,0.349 -2.279,0.681 -3.345,0.954 -2.133,0.548 -4.037,0.863 -5.518,0.629 -2.058,2.065 -1.176,2.625 0.083,3.216 1.258,0.597 2.895,1.211 2.309,3.549 0,0 -2.227,-0.296 -4.446,-0.642 -1.108,-0.179 -2.217,-0.359 -3.048,-0.494 -0.829,-0.139 -1.387,-0.246 -1.387,-0.246 1.153,3.485 -0.901,8.039 -1.611,11.517 -0.706,3.456 -0.029,5.808 6.738,4.331 l -10.554,6.527 c -1.193,1.884 -2.565,3.834 -4.128,5.531 -1.573,1.672 -3.29,3.207 -5.068,4.506 -3.555,2.596 -7.357,4.237 -10.692,4.091 -2.369,2.25 -6.504,1.619 -9.135,0.965 -2.64,-0.675 -3.848,-1.368 -0.553,0.722 0,0 -4.857,0.838 -9.707,1.568 -1.207,0.204 -2.432,0.336 -3.585,0.441 -1.149,0.11 -2.222,0.213 -3.141,0.302 -1.838,0.165 -3.063,0.274 -3.063,0.274 l 0.367,2.235 c -2.229,1.028 -4.547,1.804 -6.923,2.408 -1.188,0.301 -2.391,0.561 -3.605,0.787 -1.214,0.225 -2.459,0.326 -3.702,0.455 -4.985,0.465 -10.086,0.6 -15.168,1.212 l -1.908,0.244 c -0.639,0.063 -1.279,0.135 -1.919,0.218 -1.279,0.166 -2.556,0.376 -3.832,0.644 -2.552,0.535 -5.095,1.304 -7.634,2.432 -1.269,0.564 -2.537,1.218 -3.805,1.98 -1.268,0.77 -2.537,1.634 -3.816,2.54 -2.553,1.86 -5.114,4.215 -7.708,7.211 -3.389,-0.58 -6.818,-1.343 -10.742,-1.305 -3.935,-0.131 -8.356,0.497 -13.877,2.978 l -2.045,10.05 c -4.379,-0.806 -10.936,2.387 -17.056,4.847 -3.05,1.216 -5.969,2.207 -8.329,2.249 -2.361,0.084 -4.15,-0.998 -4.943,-3.588 -2.829,7.122 -7.134,11.375 -12.269,13.805 -2.566,1.208 -5.336,1.983 -8.214,2.378 -2.872,0.307 -5.855,0.276 -8.866,0.045 -3.011,-0.23 -6.048,-0.66 -9.038,-1.14 -1.495,-0.245 -2.981,-0.482 -4.442,-0.749 -1.458,-0.294 -2.895,-0.585 -4.303,-0.871 -5.644,-1.074 -10.862,-1.674 -15.307,-0.472 l 2.482,-14.84 c -0.701,0.015 -1.397,0.018 -2.086,-0.013 -0.684,-0.051 -1.364,-0.12 -2.04,-0.209 -1.353,-0.177 -2.69,-0.429 -4.018,-0.751 -2.657,-0.643 -5.277,-1.566 -7.91,-2.729 -1.316,-0.581 -2.636,-1.223 -3.965,-1.919 -1.331,-0.693 -2.673,-1.436 -4.004,-2.324 -2.678,-1.728 -5.419,-3.661 -8.277,-5.763 l 4.858,-13.44 c -1.917,-3.305 -4.757,-4.713 -8.288,-5.023 -3.504,-0.383 -7.661,0.201 -12.238,1.12 -2.312,0.472 -4.682,0.956 -7.098,1.449 -2.432,0.484 -4.919,0.939 -7.342,1.114 -4.877,0.432 -9.712,0.222 -13.943,-1.452 -1.118,5.718 4.042,5.635 8.494,3.303 -4.223,3.205 -8.019,5.02 -11.45,5.817 -3.421,0.776 -6.507,0.594 -9.173,-0.53 -5.39,-2.151 -9.483,-7.203 -13.158,-12.551 -3.633,-5.455 -6.764,-11.357 -10.95,-14.816 -4.241,-3.403 -9.287,-4.785 -17.324,-1.086 -1.4,-7.272 -5.646,-7.018 -11.073,-5.048 0.393,0.243 0.588,0.709 0.632,1.303 -0.573,-0.051 -1.26,-0.385 -1.936,-0.775 -3.523,1.407 -7.408,3.15 -11.14,4.214 4.175,-2.411 7.795,-4.273 10.19,-4.773 -3.232,-2.085 -7.255,-6.65 -9.782,-12.908 0,0 -3.171,3.463 -6.343,6.926 l -6.399,6.916 c -0.289,-0.42 -0.638,-0.595 -0.887,-1.104 -4.485,1.3 -4.235,-1.074 -1.46,-4.972 2.767,-3.899 8.004,-9.336 13.297,-14.209 -0.636,-3.944 -0.641,-8.261 0.39,-12.915 -10.817,10.883 -12.557,6.881 -14.412,2.997 -1.877,-3.936 -3.704,-7.887 -16.694,3.012 1.735,-3.639 1.621,-7.058 0.814,-10.568 -0.404,-1.756 -0.983,-3.534 -1.593,-5.374 -0.575,-1.877 -1.163,-3.837 -1.647,-5.885 -1.946,-8.208 -1.966,-17.962 8.974,-31.398 -3.245,3.163 -5.939,3.733 -3.93,5.744 -3.641,-0.416 -7.17,-1.03 -9.52,-2.762 -2.328,-1.748 -3.4,-4.69 -1.78,-9.926 0,0 -5.022,3.993 -10.044,7.986 -5.059,3.975 -10.119,7.95 -10.119,7.95 0,0 0.917,-2.042 2.292,-5.105 1.42,-3.085 3.349,-7.184 5.335,-11.258 3.954,-8.155 8.194,-16.175 8.194,-16.175 -8.481,2.538 -15.161,4.66 -20.851,8.507 -5.681,3.851 -10.421,9.408 -14.815,18.902 1.031,-4.298 1.764,-7.755 2.374,-10.695 0.614,-2.941 1.004,-5.282 1.252,-7.235 0.491,-3.899 0.344,-6.201 0.255,-8.43 -0.085,-2.228 -0.11,-4.38 0.733,-7.92 0.814,-3.507 2.619,-8.52 6.329,-16.275 l -13.106,10.995 c -1.61,-2.446 0.709,-8.909 1.861,-13.95 0.573,-2.53 0.819,-4.698 0.096,-5.913 -0.697,-1.234 -2.414,-1.484 -5.865,-0.12 -8.648,2.167 -15.708,0.075 -22.132,-4.452 -3.107,-2.327 -5.999,-5.29 -8.848,-8.623 -2.823,-3.348 -5.703,-7.012 -8.318,-11.022 -2.687,-3.972 -5.382,-8.14 -8.329,-12.251 -0.751,-1.02 -1.461,-2.066 -2.175,-3.113 -0.722,-1.043 -1.461,-2.082 -2.219,-3.111 -1.516,-2.06 -3.111,-4.088 -4.808,-6.06 -1.696,-1.974 -3.495,-3.892 -5.421,-5.736 -1.858,-1.873 -3.81,-3.687 -5.935,-5.397 -4.244,-3.424 -9.032,-6.498 -14.688,-9.026 13.232,-3.506 17.978,-5.677 18.33,-7.101 0.32,-1.425 -3.638,-2.229 -8.152,-3.178 -8.976,-1.867 -20.016,-4.616 -0.455,-12.371 -6.415,1.253 -11.812,1.328 -16.661,2.204 -4.843,0.883 -9.144,2.564 -13.264,7.194 0.292,-1.35 0.433,-2.603 0.448,-3.772 0.032,-1.175 -0.029,-2.279 -0.214,-3.309 -0.36,-2.061 -1.14,-3.849 -2.143,-5.47 -2.017,-3.237 -4.891,-5.829 -7.011,-8.501 -1.052,-1.337 -1.962,-2.678 -2.395,-4.137 -0.425,-1.46 -0.455,-3.018 0.126,-4.746 1.163,-3.452 4.764,-7.599 12.562,-12.915 -6.618,0.665 -10.959,2.811 -14.623,4.865 -3.668,2.046 -6.664,3.988 -10.674,4.056 2.252,-2.24 9.211,-8.659 1.108,-8.644 -8.088,0.006 -9.811,5.368 -14.377,9.821 -1.991,-9.954 7.128,-17.816 21.075,-24.049 13.973,-6.262 32.913,-11.12 51.276,-15.721 -4.877,-1.155 -8.463,-2.377 -10.709,-3.711 -1.126,-0.666 -1.922,-1.36 -2.387,-2.087 -0.452,-0.73 -0.539,-1.5 -0.312,-2.308 0.928,-3.233 7.182,-7.152 18.935,-12.239 -6.383,-0.399 -13.02,-1.359 -18.377,-0.821 -5.355,0.542 -9.427,2.628 -10.627,8.462 -0.728,-1.452 -2.644,-4.326 -4.642,-7.957 -0.973,-1.817 -2.073,-3.81 -2.858,-5.92 -0.811,-2.107 -1.5,-4.308 -1.929,-6.502 -0.86,-4.385 -0.68,-8.738 1.624,-12.174 0.577,-0.86 1.282,-1.661 2.148,-2.394 0.885,-0.734 1.923,-1.398 3.117,-1.978 2.392,-1.164 5.429,-1.993 9.237,-2.412 -7.891,-1.21 -2.924,-8.322 0.491,-10.106 -0.709,-3.344 -1.416,-5.926 -2.048,-8.128 -0.561,-2.204 -1.027,-4.026 -1.364,-5.85 -0.663,-3.644 -0.734,-7.31 0.552,-13.985 l 5.112,3.628 c 18.477,-2.834 20.364,-5.34 18.478,-8.642 -1.94,-3.262 -7.909,-7.381 -5.539,-12.496 l -3.805,0.167 c -3.231,-3.1 -5.528,-5.64 -6.903,-7.707 -1.387,-2.069 -2.037,-3.669 -2.207,-4.937 -0.339,-2.54 1.238,-3.749 2.695,-4.936 1.457,-1.191 2.794,-2.358 1.987,-4.88 -0.403,-1.264 -1.342,-2.867 -3.064,-5.013 -1.691,-2.144 -4.06,-4.822 -7.474,-8.294 l 22.682,3.824 c 24.716,1.564 18.031,-3.879 7.887,-11.856 -1.271,-1.004 -2.577,-2.035 -3.909,-3.088 -1.286,-1.055 -2.571,-2.136 -3.802,-3.228 -2.462,-2.188 -4.706,-4.427 -6.31,-6.595 -3.21,-4.33 -3.849,-8.395 1.392,-10.923 0,0 2.986,1.825 5.972,3.65 2.997,1.79 5.993,3.58 5.993,3.58 4.468,-1.063 2.793,-3.545 -2.242,-6.977 -4.941,-3.409 -13.244,-7.78 -22.186,-12.498 -8.946,-4.709 -18.532,-9.764 -26.062,-14.302 -7.517,-4.527 -13.133,-8.559 -13.954,-10.997 -1.797,-1.421 -3.664,-1.124 -5.566,-0.228 -1.897,0.895 -3.731,2.409 -5.608,3.344 -1.397,-1.815 -2.497,-3.401 -3.332,-4.774 -0.804,-1.367 -1.333,-2.521 -1.642,-3.484 -0.613,-1.928 -0.311,-3.091 0.678,-3.691 1.979,-1.201 6.707,-0.15 12.463,1.357 11.504,3.038 27.166,7.746 32.751,1.042 -7.281,-3.578 -17.344,-5.432 -25.569,-7.759 -8.219,-2.336 -14.574,-5.235 -14.244,-11.275 -2.626,-2.301 -0.092,-4.582 4.746,-6.949 4.854,-2.365 11.955,-4.804 18.668,-7.494 3.32,-1.36 6.652,-2.755 9.522,-4.29 2.865,-1.537 5.277,-3.214 6.91,-5.11 1.633,-1.898 2.487,-4.018 2.249,-6.457 -0.232,-2.437 -1.601,-5.211 -4.24,-8.36 4.866,3.815 9.867,7.583 15.046,9.948 5.193,2.376 10.466,3.32 16.224,1.778 2.161,-2.1 1.376,-5.925 -0.323,-10.5 -0.851,-2.286 -1.931,-4.759 -2.997,-7.28 -1.073,-2.523 -2.118,-5.088 -2.813,-7.509 -2.898,-9.693 -1.666,-17.951 17.452,-13.756 -2.15,-2.726 -4.618,-4.646 -7.204,-6.07 6.541,-1.515 13.692,-5.627 21.626,-8.515 8.134,-2.788 17.109,-4.264 26.882,-1.016 -14.676,-11.306 -18.216,-18.708 -15.889,-23.606 1.126,-2.467 3.627,-4.344 6.771,-5.847 1.573,-0.752 3.307,-1.412 5.116,-2.009 1.807,-0.597 3.679,-1.14 5.622,-1.599 7.737,-1.875 15.223,-3.257 17.527,-6.72 0.582,-0.865 0.832,-1.871 0.707,-3.036 -0.11,-1.153 -0.618,-2.484 -1.602,-4.032 -1.969,-3.095 -5.83,-7.069 -12.264,-12.204 0,0 5.201,-4.293 10.402,-8.586 2.549,-2.165 5.278,-4.161 7.299,-5.665 2.021,-1.502 3.369,-2.502 3.369,-2.502 l -5.395,-3.947 c 2.3,-3.673 5.04,-6.037 8.041,-7.393 3.035,-1.328 6.418,-1.577 9.883,-1.201 6.959,0.775 14.465,4.239 21.817,7.779 -0.213,-5.556 -6.283,-7.979 -8.835,-10.131 1.132,-3.166 2.354,-5.8 3.541,-8.1 1.19,-2.299 2.369,-4.243 3.6,-5.856 1.231,-1.613 2.514,-2.896 3.915,-3.875 1.406,-0.973 2.899,-1.676 4.666,-2.007 3.494,-0.703 7.736,-0.302 13.25,1.031 2.755,0.667 5.827,1.568 9.266,2.684 1.719,0.559 3.53,1.171 5.438,1.835 1.913,0.671 3.963,1.443 6.099,2.249 0,0 -2.546,-4.129 -5.091,-8.259 l -5.038,-8.269 c 2.868,1.503 4.929,-0.418 7.04,-4.071 1.056,-1.825 2.127,-4.085 3.316,-6.562 1.23,-2.425 2.616,-5.019 4.193,-7.634 1.58,-2.61 3.369,-5.219 5.428,-7.606 1.032,-1.191 2.121,-2.34 3.3,-3.381 1.203,-1.008 2.494,-1.907 3.853,-2.71 2.721,-1.6 5.748,-2.758 9.092,-3.264 3.351,-0.49 6.97,-0.407 11.032,0.759 -1.217,-1.692 -3.381,-4.556 -6.43,-6.022 8.96,1.977 15.378,-1.404 21.214,-6.494 2.957,-2.457 5.733,-5.384 8.472,-8.359 1.376,-1.497 2.74,-2.983 4.087,-4.448 0.681,-0.729 1.358,-1.455 2.045,-2.151 0.699,-0.67 1.399,-1.324 2.102,-1.956 2.811,-2.527 5.668,-4.695 8.61,-6.104 2.946,-1.399 5.952,-2.093 9.114,-1.482 6.352,1.267 13.004,7.063 20.171,20.47 0,0 1.332,0.596 3.331,1.489 1.995,0.912 4.597,2.031 7.209,3.299 5.129,2.515 10.258,5.03 10.258,5.03 -9.777,4.488 -6.883,10.408 -2.564,16.484 4.37,6.097 9.987,12.324 7.601,18.03 4.131,0.561 7.542,-4.985 8.96,-10.613 1.389,-5.637 0.655,-11.399 -4.548,-11.62 l -0.711,3.123 c -2.937,-6.94 -3.062,-11.435 -1.559,-14.528 0.752,-1.53 1.879,-2.788 3.264,-3.702 1.383,-0.922 2.986,-1.629 4.636,-2.265 6.607,-2.536 13.884,-4.016 11.635,-13.34 5.429,-0.359 10.763,-0.969 16.047,-1.713 1.323,-0.171 2.631,-0.426 3.958,-0.558 l 3.961,-0.47 c 2.636,-0.333 5.261,-0.698 7.88,-1.088 2.618,-0.404 5.231,-0.807 7.839,-1.21 2.619,-0.325 5.233,-0.65 7.843,-0.974 2.612,-0.343 5.219,-0.686 7.822,-1.026 l 3.906,-0.519 3.907,-0.333 c 5.209,-0.44 10.41,-0.857 15.598,-1.197 5.187,-0.193 10.363,-0.152 15.514,-0.078 l 3.857,0.092 c 1.284,0.031 2.566,0.08 3.843,0.217 2.556,0.23 5.104,0.492 7.641,0.794 2.537,0.302 5.062,0.642 7.574,1.024 1.256,0.198 2.51,0.376 3.756,0.621 l 3.717,0.844 c 0,0 -1.626,3.849 -3.203,7.761 -0.782,1.964 -1.564,3.928 -2.151,5.401 -0.58,1.496 -0.966,2.494 -0.966,2.494 0,0 0.209,0.022 0.575,0.06 0.365,0.054 0.886,0.129 1.511,0.221 1.25,0.185 2.916,0.431 4.583,0.677 l 6.66,1.008 c 3.98,-2.989 6.621,-11.359 -3.197,-13.211 3.156,-3.991 7.036,-0.909 9.92,3.402 1.453,2.131 2.638,4.765 3.453,6.938 0.812,2.199 1.241,4.047 1.159,4.912 9.644,-0.572 8.817,-5.355 6.074,-10.203 -2.72,-4.806 -7.374,-9.606 -4.426,-8.832 l 7.666,3.757 -2.106,1.204 c 5.128,8.355 4.338,14.619 15.48,17.758 7.657,-0.442 5.777,-7.489 8.684,-7.02 0.232,-0.983 1.325,-1.151 4.351,1.255 0,0 4.105,1.46 8.211,2.92 4.087,1.483 8.174,2.965 8.174,2.965 0,10e-4 -2.422,1.841 -4.815,3.759 -2.395,1.911 -4.761,3.9 -4.761,3.9 5.428,7.812 14.682,5.668 3.911,14.039 4.001,-3.362 9.729,-3.749 16.157,-2.458 3.238,0.576 6.535,1.85 9.904,3.285 3.373,1.422 6.787,3.082 10.123,4.806 3.278,1.854 6.454,3.826 9.46,5.665 1.499,0.922 2.956,1.819 4.354,2.679 0.699,0.425 1.383,0.841 2.051,1.247 0.663,0.412 1.29,0.851 1.911,1.251 4.946,3.242 8.795,5.437 10.789,5.397 0.703,1.383 1.449,2.668 2.236,3.868 0.775,1.223 1.562,2.414 2.408,3.51 1.683,2.205 3.533,4.144 5.541,5.941 1.005,0.897 2.048,1.76 3.13,2.6 1.08,0.842 2.216,1.637 3.322,2.526 2.242,1.727 4.647,3.401 7.174,5.158 -3.291,-0.635 -9.401,5.423 -0.43,10.579 1.641,-3.994 3.684,-5.686 6.036,-5.939 2.32,-0.214 4.893,1.058 7.683,2.705 2.786,1.654 5.775,3.693 8.893,5.156 3.029,1.573 6.203,2.56 9.45,2.052 -2.513,-0.015 -2.478,1.449 -1.241,3.565 1.22,2.138 3.701,4.873 5.896,7.699 2.16,2.864 4.162,5.67 4.721,7.625 0.556,1.961 -0.32,3.041 -3.969,2.651 3.446,2.686 4.392,1.874 5.336,0.663 0.941,-1.201 1.89,-2.829 5.257,-1.481 0.338,0.606 0.688,1.203 1.051,1.793 0.346,0.606 0.692,1.217 1.061,1.808 0.735,1.188 1.511,2.348 2.325,3.488 1.628,2.282 3.407,4.482 5.295,6.643 0.931,1.094 1.946,2.123 2.879,3.246 0.945,1.112 1.913,2.219 2.898,3.325 1.969,2.213 4.006,4.424 6.075,6.662 2.107,2.203 4.081,4.574 6.096,6.952 2.01,2.381 4.016,4.809 5.988,7.294 2.024,2.445 3.757,5.147 5.537,7.827 1.758,2.697 3.45,5.459 5.057,8.283 -0.769,1.033 -4.675,-1.418 -3.129,4.218 0,0 2.991,1.999 5.95,4.085 2.957,2.08 5.851,4.262 5.851,4.262 2.078,4.769 -3.042,7.505 4.527,13.657 -1.371,-0.695 -3.469,-1.672 -2.136,1.461 1.754,2.58 3.547,5.152 5.117,7.863 1.536,2.729 3.088,5.462 4.572,8.238 l 2.211,4.177 1.088,2.1 0.985,2.157 c 1.3,2.881 2.575,5.781 3.832,8.69 2.63,5.766 4.631,11.822 6.906,17.75 l 1.659,4.467 c 0.517,1.503 0.978,3.028 1.469,4.541 0.971,3.025 1.942,6.054 2.914,9.084 0.476,1.515 1.005,3.013 1.441,4.541 l 1.271,4.597 c 0.839,3.067 1.757,6.104 2.652,9.148 0.968,3.021 1.668,6.12 2.473,9.185 l 2.426,9.19 0.623,2.291 0.524,2.314 1.066,4.623 c 0.706,3.082 1.478,6.147 2.28,9.206 0.428,1.524 0.747,3.069 1.081,4.611 l 1.032,4.62 c 0.701,3.077 1.428,6.15 2.182,9.22 -0.997,-3.298 -1.363,-3.811 -1.377,-2.865 -0.008,0.474 0.07,1.313 0.197,2.355 0.125,1.042 0.321,2.283 0.421,3.579 -0.587,-3.322 -1.253,0.259 -2.012,-0.304 0,0 1.033,5.143 2.066,10.285 0.499,2.58 1.024,5.16 1.426,7.097 0.308,1.947 0.513,3.245 0.513,3.245 -0.788,1.992 -0.438,7.59 -0.096,12.988 0.227,2.696 0.208,5.353 0.148,7.469 -0.071,2.117 -0.257,3.696 -0.673,4.252 l 0.175,-6.628 c -0.934,4.442 -2.088,1.389 -3.425,-2.531 -1.484,-3.921 -3.1,-8.704 -4.349,-7.976 0.394,-2.455 0.262,-5.268 -0.127,-8.343 -0.159,-1.541 -0.539,-3.132 -0.899,-4.783 -0.378,-1.648 -0.769,-3.354 -1.172,-5.108 -0.4,-1.752 -0.799,-3.55 -1.161,-5.387 -0.181,-0.918 -0.353,-1.846 -0.512,-2.784 -0.075,-0.469 -0.15,-0.94 -0.226,-1.413 l -0.273,-1.417 c -0.693,-3.796 -1.104,-7.727 -0.95,-11.787 -1.126,-3.351 -0.334,3.094 -1.256,1.356 0.195,-2.069 0.233,-4.333 -0.219,-7.137 -0.482,-2.799 -1.3,-6.169 -2.525,-10.499 l -0.056,1.053 c -0.33,-1.542 -0.648,-3.029 -0.956,-4.468 -0.157,-0.719 -0.312,-1.427 -0.464,-2.123 -0.162,-0.695 -0.366,-1.367 -0.543,-2.034 -0.752,-2.662 -1.46,-5.167 -2.141,-7.576 -0.712,-2.397 -1.396,-4.699 -2.068,-6.965 -0.722,-2.249 -1.569,-4.42 -2.361,-6.63 -3.139,-8.854 -6.841,-17.915 -12.611,-30.784 l 2.093,1.4 c -2.591,-5.511 -3.493,-6.514 -4.938,-8.982 -0.879,-7.239 6.903,15.612 6.477,8.906 -1.446,-1.597 -3.238,-4.85 -5.191,-8.892 -0.477,-1.015 -0.977,-2.074 -1.492,-3.167 -0.251,-0.549 -0.505,-1.105 -0.763,-1.669 -0.281,-0.553 -0.565,-1.112 -0.851,-1.677 -1.133,-2.262 -2.305,-4.605 -3.469,-6.929 -1.168,-2.321 -2.326,-4.623 -3.427,-6.81 -1.212,-2.127 -2.397,-4.121 -3.502,-5.885 -2.212,-3.525 -4.126,-6.109 -5.48,-6.895 -1.102,-2.051 -1.606,-2.906 -1.628,-3.272 -0.042,-0.353 0.312,-0.165 0.665,0.025 0.707,0.379 1.416,0.761 -1.039,-3.215 l -2.047,-1.657 -0.271,-2.599 c -1.685,-2.564 -3.163,-4.358 -4.312,-5.479 -1.17,-1.109 -2.054,-1.52 -2.421,-1.416 0.949,1.148 2.109,3.642 2.884,5.026 -0.627,-0.773 -1.275,-1.65 -1.932,-2.6 -0.672,-0.939 -1.381,-1.931 -2.108,-2.948 -1.428,-2.052 -2.851,-4.251 -4.164,-6.331 -1.318,-2.077 -2.507,-4.049 -3.518,-5.604 -1.061,-1.517 -1.89,-2.654 -2.368,-3.145 0,0 1.451,1.705 2.902,3.411 l 2.743,3.535 c -0.861,-1.336 -1.733,-2.69 -2.615,-4.06 -0.956,-1.32 -1.922,-2.654 -2.899,-4 -1.977,-2.678 -3.992,-5.408 -6.032,-8.169 -0.997,-1.4 -2.13,-2.704 -3.229,-4.045 -1.105,-1.336 -2.216,-2.677 -3.329,-4.022 -1.113,-1.343 -2.23,-2.69 -3.347,-4.038 l -1.674,-2.023 c -0.563,-0.672 -1.172,-1.301 -1.755,-1.954 -2.347,-2.597 -4.689,-5.19 -7.01,-7.759 -1.172,-1.275 -2.267,-2.613 -3.474,-3.828 -1.191,-1.233 -2.375,-2.457 -3.549,-3.672 -2.34,-2.439 -4.62,-4.865 -6.826,-7.261 -2.272,-2.326 -4.546,-4.544 -6.666,-6.783 l 1.862,0.733 c -3.295,-3.373 -5.642,-5.707 -7.636,-7.407 -2.034,-1.656 -3.618,-2.795 -5.259,-3.95 -3.312,-2.277 -6.673,-4.831 -14.873,-11.102 l 0.501,0.584 c -1.446,-1.514 -3.229,-3.169 -5.225,-4.857 -0.983,-0.867 -2.084,-1.649 -3.213,-2.441 -1.129,-0.793 -2.297,-1.579 -3.488,-2.346 3.85,3.589 -9.099,-4.022 -3.944,0.547 -2.009,-1.562 -3.64,-2.829 -4.977,-3.868 -1.338,-1.04 -2.437,-1.769 -3.274,-2.414 -1.692,-1.263 -2.491,-1.956 -3.083,-2.573 -1.188,-1.239 -1.535,-2.156 -6.639,-6.85 0,0 -0.202,-0.041 -0.521,-0.072 -0.316,-0.035 -0.738,-0.081 -1.159,-0.127 -0.842,-0.09 -1.684,-0.18 -1.684,-0.18 -1.752,-1.577 -2.646,-2.549 -4.225,-3.771 -0.789,-0.611 -1.75,-1.285 -3.077,-2.131 -0.663,-0.422 -1.419,-0.888 -2.289,-1.411 -0.873,-0.518 -1.846,-1.124 -3.014,-1.691 0.908,0.564 1.464,1.004 1.77,1.326 0.311,0.314 0.379,0.497 0.288,0.595 -0.183,0.198 -0.992,0.037 -1.795,-0.063 -0.81,-0.085 -1.593,-0.145 -1.679,0.148 -0.043,0.146 0.089,0.382 0.479,0.745 0.395,0.351 1.032,0.865 1.988,1.59 -1.259,-0.5 -2.51,-0.914 -3.708,-1.342 -1.195,-0.432 -2.34,-0.87 -3.44,-1.314 -2.197,-0.888 -4.213,-1.797 -6.083,-2.708 -3.725,-1.866 -6.977,-3.496 -9.903,-4.962 -2.924,-1.489 -5.534,-2.81 -8.079,-3.744 -2.559,-0.893 -5.111,-1.25 -7.793,-1.073 -4.045,-3.362 0.52,-2.321 5.517,-0.732 0.622,0.201 1.256,0.396 1.87,0.617 0.607,0.241 1.205,0.478 1.778,0.706 1.144,0.461 2.188,0.882 3,1.209 1.625,0.646 2.335,0.889 1.12,0.182 2.385,0.33 0.746,-1.073 -2.318,-2.858 -0.765,-0.446 -1.619,-0.916 -2.521,-1.388 -0.906,-0.457 -1.883,-0.854 -2.854,-1.264 -1.946,-0.804 -3.913,-1.527 -5.558,-2.008 -1.65,-0.56 -3.272,-0.807 -5.026,-0.947 C 8.837,46.162 6.958,46.098 4.728,46.101 2.508,46.064 -0.013,45.939 -3.01,45.52 c -3.008,-0.38 -6.439,-1.248 -10.662,-2.162 1.678,0.375 1.718,0.68 3.391,1.054 -3.27,-0.266 -6.261,-1.302 -9.462,-2.315 -3.202,-0.989 -6.59,-2.091 -10.665,-1.919 -3.927,-3.091 -10.138,-1.685 -10.897,-4.888 0,0 3.889,0.887 7.779,1.773 1.943,0.441 3.885,0.881 5.341,1.212 0.728,0.165 1.334,0.302 1.759,0.399 0.426,0.089 0.662,0.172 0.662,0.172 -4.347,-1.226 -8.455,-3.033 -13.376,-4.728 -1.232,-0.412 -2.507,-0.854 -3.861,-1.201 -1.358,-0.315 -2.783,-0.604 -4.289,-0.854 -3.011,-0.497 -6.348,-0.833 -10.111,-0.885 1.09,0.767 5.397,2.143 8.352,2.976 -2.222,0.167 -4.276,-0.246 -6.358,-0.661 -1.04,-0.208 -2.086,-0.416 -3.158,-0.55 -0.537,-0.065 -1.079,-0.12 -1.631,-0.132 -0.554,0.007 -1.118,0.044 -1.692,0.119 0.5,1.493 5.25,2.299 11.052,3.105 1.45,0.202 2.965,0.413 4.496,0.627 1.528,0.23 3.08,0.419 4.566,0.802 2.984,0.691 5.815,1.489 8.068,2.474 -2.398,0.222 -6.75,-1.133 -10.014,-1.992 -3.288,-0.712 -5.437,-1.029 -3.289,0.897 -3.121,-2.494 -7.383,-2.906 -12.207,-3.254 -1.203,-0.118 -2.459,-0.095 -3.74,-0.149 -1.281,-0.044 -2.594,-0.117 -3.933,-0.251 -2.677,-0.267 -5.457,-0.779 -8.326,-1.813 l 0.654,1.921 c -0.911,-0.194 -2.302,-0.65 -3.901,-0.937 -1.599,-0.281 -3.399,-0.525 -5.101,-0.534 0,0 1.512,0.638 3.025,1.276 0.752,0.316 1.504,0.633 2.068,0.871 0.563,0.229 0.935,0.41 0.935,0.41 -4.642,-1.142 -9.215,-0.753 -13.693,-0.259 -1.118,0.125 -2.234,0.251 -3.349,0.376 -1.113,0.111 -2.223,0.326 -3.334,0.44 -2.221,0.26 -4.441,0.375 -6.693,0.168 4.698,-0.157 7.31,-0.391 8.712,-0.677 1.402,-0.285 1.593,-0.558 1.442,-0.954 -0.297,-0.759 -1.978,-1.73 2.044,-2.341 -2.929,-0.438 -5.344,-0.435 -7.37,-0.425 -2.026,0.026 -3.664,0.162 -5.047,0.375 -2.766,0.427 -4.51,1.166 -6.326,1.963 -0.453,0.197 -0.912,0.396 -1.392,0.604 -0.479,0.22 -0.979,0.456 -1.517,0.682 -1.077,0.455 -2.307,0.901 -3.826,1.313 -1.52,0.413 -3.329,0.791 -5.565,1.109 -1.119,0.159 -2.344,0.304 -3.694,0.43 -0.676,0.054 -1.382,0.113 -2.122,0.173 -0.739,0.059 -1.505,0.174 -2.31,0.253 1.742,-0.182 4.994,-0.698 7.117,-1.346 2.122,-0.633 3.125,-1.31 0.336,-1.518 -1.227,0.209 -2.549,0.448 -3.888,0.71 -0.669,0.138 -1.344,0.252 -2.008,0.423 -0.662,0.184 -1.319,0.367 -1.961,0.545 -2.565,0.74 -4.873,1.524 -6.3,2.255 -8.513,1.016 -7.951,0.412 -6.166,-0.459 1.78,-0.873 4.802,-2.017 1.066,-2.107 -1.369,0.814 -2.587,1.199 -3.757,1.415 -1.165,0.24 -2.293,0.233 -3.495,0.137 -2.401,-0.191 -5.1,-0.74 -8.926,-0.401 l 0.35,2.018 c -4.786,1.189 -7.478,1.899 -9.197,1.976 -1.712,0.102 -2.411,-0.27 -3.05,-0.648 -0.638,-0.379 -1.217,-0.764 -2.7,-0.688 -0.742,0.038 -1.709,0.191 -3.022,0.517 -0.656,0.163 -1.398,0.371 -2.241,0.628 -0.848,0.24 -1.782,0.584 -2.821,1.019 0,0.001 1.993,0.119 4.012,0.4 2.001,0.243 4.002,0.488 4.002,0.488 0,0 -2.29,0.379 -4.579,0.76 -1.153,0.164 -2.276,0.445 -3.126,0.625 -0.849,0.187 -1.416,0.312 -1.416,0.312 l 2.459,1.73 c -5.018,0.627 -8.27,1.279 -11.398,2.213 -3.153,0.863 -6.094,2.305 -10.593,4.304 0.822,-1.098 0.208,-1.9 -1.66,-2.06 -1.856,-0.135 -5.014,0.265 -9.122,1.836 -5.051,3.512 3.824,0.603 -7.72,5.14 1.551,0.08 3.187,0.215 4.956,-0.162 1.778,-0.354 3.649,-1.319 5.814,-3.186 0.768,0.464 3.056,0.318 3.822,0.77 -1.36,0.908 -2.995,1.65 -4.675,2.47 -1.679,0.826 -3.46,1.581 -5.205,2.268 -3.489,1.374 -6.839,2.482 -8.888,3.34 1.541,-0.742 3.376,-1.649 4.222,-2.343 0,0 -1.1,0.263 -2.75,0.656 -0.822,0.205 -1.798,0.409 -2.818,0.692 -1.016,0.296 -2.099,0.612 -3.182,0.929 -4.362,1.267 -8.724,2.534 -8.724,2.534 -2.182,1.969 0.139,1.588 2.407,1.208 -1.68,0.682 -3.195,1.069 -4.906,1.555 -1.693,0.521 -3.536,1.231 -5.929,2.419 1.026,0.463 1.68,1.146 2.947,1.355 0.634,0.104 1.419,0.09 2.478,-0.129 0.532,-0.105 1.121,-0.281 1.813,-0.482 0.698,-0.189 1.481,-0.436 2.366,-0.75 0,0 -1.003,0.351 -2.508,0.876 -1.473,0.599 -3.437,1.398 -5.401,2.197 -3.949,1.6 -7.897,3.201 -7.897,3.201 -0.68,1.129 -6.345,6.367 -4.15,5.771 -1.846,1.459 -4.09,2.75 -6.586,3.988 -1.248,0.619 -2.558,1.225 -3.912,1.833 -1.321,0.663 -2.673,1.341 -4.046,2.031 -2.752,1.381 -5.591,2.826 -8.333,4.441 -0.686,0.405 -1.366,0.819 -2.036,1.244 -0.658,0.445 -1.288,0.927 -1.917,1.409 -1.251,0.968 -2.454,1.992 -3.582,3.081 -0.73,0.098 -1.969,0.606 -4.242,1.997 -1.134,0.928 -2.233,1.867 -3.311,2.81 -1.071,0.954 -2.059,1.994 -3.077,2.988 -2.019,2.01 -4.019,4.02 -6.128,5.998 -1.052,0.992 -2.142,1.962 -3.256,2.945 -1.078,1.025 -2.199,2.04 -3.382,3.041 -2.365,2.001 -4.97,3.949 -7.972,5.82 0,0.001 -0.885,1.933 -1.634,3.977 -0.769,2.01 -1.539,4.018 -1.539,4.018 -4.062,3.544 -2.989,0.905 -2.565,-1.167 0.418,-2.068 0.19,-3.565 -6.7,2.436 -2.505,2.062 -3.716,3.557 -4.298,4.554 -0.579,1.001 -0.486,1.55 -0.17,1.949 0.631,0.797 2.145,1.004 1.004,2.995 -1.384,0.881 -3.053,1.906 -4.875,3.12 -1.802,1.231 -3.847,2.57 -5.697,4.315 -1.892,1.708 -3.788,3.647 -5.542,5.841 -0.877,1.098 -1.717,2.258 -2.502,3.485 -0.392,0.613 -0.773,1.241 -1.131,1.89 -0.335,0.668 -0.652,1.353 -0.95,2.055 1.397,-1.387 2.54,-2.699 3.616,-4.025 1.072,-1.33 2.086,-2.668 3.342,-3.994"
             style="fill:#373535;fill-opacity:1;fill-rule:nonzero;stroke:none"
             id="path246"
             inkscape:connector-curvature="0" /></g><g
           id="g248"
           transform="translate(76.6572,517.3081)"><path
             d="M 0,0 C -0.544,-0.66 -1.042,-0.784 -1.541,-0.875 -1.294,-1.972 -0.812,-2.072 0,0"
             style="fill:#373535;fill-opacity:1;fill-rule:nonzero;stroke:none"
             id="path250"
             inkscape:connector-curvature="0" /></g><g
           id="g252"
           transform="translate(217.4302,163.8486)"><path
             d="m 0,0 c 0.097,-0.098 0.208,-0.174 0.308,-0.267 0.259,-0.025 0.438,0.015 0.573,0.084 L 0,0 z"
             style="fill:#373535;fill-opacity:1;fill-rule:nonzero;stroke:none"
             id="path254"
             inkscape:connector-curvature="0" /></g><g
           id="g256"
           transform="translate(350.3926,803.6592)"><path
             d="M 0,0 C -2.512,-0.191 -3.959,-0.091 -4.95,0.111 -4.985,-0.405 -3.781,-0.602 0,0"
             style="fill:#373535;fill-opacity:1;fill-rule:nonzero;stroke:none"
             id="path258"
             inkscape:connector-curvature="0" /></g><g
           id="g260"
           transform="translate(617.5361,792.6445)"><path
             d="M 0,0 C 0,0 -1.893,1.152 -3.786,2.305 -4.737,2.874 -5.687,3.441 -6.4,3.868 -7.128,4.271 -7.613,4.541 -7.613,4.541 -4.139,2.013 -3.778,-0.229 -2.682,-2.46 -2.028,-1.122 -2.141,1.787 0,0"
             style="fill:#373535;fill-opacity:1;fill-rule:nonzero;stroke:none"
             id="path262"
             inkscape:connector-curvature="0" /></g><g
           id="g264"
           transform="translate(650.1143,717.2075)"><path
             d="M 0,0 C 0.477,-0.349 0.918,-0.783 1.358,-1.215 1.81,-1.637 2.19,-2.125 2.813,-2.32 l 1.25,1.683 C 2.266,1.106 0.453,2.299 -0.537,2.504 -1.032,2.607 -1.322,2.466 -1.3,2.032 -1.281,1.823 -1.217,1.508 -1.003,1.173 -0.759,0.869 -0.429,0.48 0,0"
             style="fill:#373535;fill-opacity:1;fill-rule:nonzero;stroke:none"
             id="path266"
             inkscape:connector-curvature="0" /></g><g
           id="g268"
           transform="translate(612.2686,770.6938)"><path
             d="m 0,0 c -1.189,-2.295 -0.474,-3.828 1.128,-5.211 1.574,-1.419 4.07,-2.658 6.564,-4.178 -0.277,0.211 -0.555,0.392 -0.788,0.663 2.67,2.16 2.487,3.803 0.877,5.224 C 6.17,-2.089 3.162,-0.901 0,0"
             style="fill:#373535;fill-opacity:1;fill-rule:nonzero;stroke:none"
             id="path270"
             inkscape:connector-curvature="0" /></g><g
           id="g272"
           transform="translate(621.0908,760.5645)"><path
             d="M 0,0 C 1.508,-0.977 2.984,-2.065 4.187,-3.376 6.31,-1.746 2.858,-1.51 0,0"
             style="fill:#373535;fill-opacity:1;fill-rule:nonzero;stroke:none"
             id="path274"
             inkscape:connector-curvature="0" /></g><g
           id="g276"
           transform="translate(568.8843,819.9092)"><path
             d="M 0,0 C 1.801,-3.074 5.069,6.331 5.381,3.057 8.538,5.729 3.269,6.411 -0.813,5.551 -4.897,4.685 -7.772,2.385 0,0"
             style="fill:#373535;fill-opacity:1;fill-rule:nonzero;stroke:none"
             id="path278"
             inkscape:connector-curvature="0" /></g><g
           id="g280"
           transform="translate(606.4736,754.418)"><path
             d="m 0,0 1.937,6.223 c 0,0 -1.368,-0.565 -2.737,-1.129 -1.369,-0.586 -2.738,-1.171 -2.738,-1.171 0,0 0.894,-0.971 1.788,-1.943 C -0.842,1.034 0,0 0,0"
             style="fill:#373535;fill-opacity:1;fill-rule:nonzero;stroke:none"
             id="path282"
             inkscape:connector-curvature="0" /></g><g
           id="g284"
           transform="translate(571.4985,782.4634)"><path
             d="m 0,0 6.927,-6.189 c 0.475,1.11 1.797,1.106 3.26,0.802 C 7.913,-3.73 5.514,-1.999 3.663,-0.77 1.799,0.437 0.423,1.018 0,0"
             style="fill:#373535;fill-opacity:1;fill-rule:nonzero;stroke:none"
             id="path286"
             inkscape:connector-curvature="0" /></g><g
           id="g288"
           transform="translate(581.6855,777.0762)"><path
             d="M 0,0 C 2.396,-1.685 4.814,-3.033 6.765,-2.956 5.396,-2.165 2.409,-0.514 0,0"
             style="fill:#373535;fill-opacity:1;fill-rule:nonzero;stroke:none"
             id="path290"
             inkscape:connector-curvature="0" /></g><g
           id="g292"
           transform="translate(596.0791,760.8633)"><path
             d="m 0,0 -2.003,1.763 c 0,0 -1.293,0.906 -2.586,1.813 -1.318,0.869 -2.662,1.696 -2.662,1.696 0,0 0.463,-0.314 1.159,-0.785 0.348,-0.236 0.753,-0.511 1.188,-0.805 0.42,-0.316 0.869,-0.653 1.318,-0.99 C -1.793,1.346 0,0 0,0"
             style="fill:#373535;fill-opacity:1;fill-rule:nonzero;stroke:none"
             id="path294"
             inkscape:connector-curvature="0" /></g><g
           id="g296"
           transform="translate(480.915,819.9951)"><path
             d="m 0,0 c 0,0 -2.597,-0.204 -5.194,-0.408 -2.581,-0.23 -5.162,-0.46 -5.162,-0.46 -1.624,-3.416 0.606,-6.118 4.459,-5.393 C -3.113,-4.244 0.795,-3.672 0,0"
             style="fill:#373535;fill-opacity:1;fill-rule:nonzero;stroke:none"
             id="path298"
             inkscape:connector-curvature="0" /></g><g
           id="g300"
           transform="translate(506.5537,800.0205)"><path
             d="M 0,0 C -2.397,1.102 -2.451,1.545 -3.7,2.545 L -4.614,0.441 0,0 z"
             style="fill:#373535;fill-opacity:1;fill-rule:nonzero;stroke:none"
             id="path302"
             inkscape:connector-curvature="0" /></g><g
           id="g304"
           transform="translate(479.1616,806.5049)"><path
             d="M 0,0 C -1.097,-0.451 -14.088,0.673 -2.091,-1.357 -0.987,-0.772 8.518,-2.504 0,0"
             style="fill:#373535;fill-opacity:1;fill-rule:nonzero;stroke:none"
             id="path306"
             inkscape:connector-curvature="0" /></g><g
           id="g308"
           transform="translate(334.3584,807.6084)"><path
             d="m 0,0 2.396,0.617 c 0,0 -0.082,0.259 -0.204,0.648 C 2.161,1.362 2.128,1.468 2.093,1.579 L 2.065,1.668 C 2.016,1.875 1.966,2.083 1.915,2.294 1.814,2.716 1.711,3.146 1.606,3.585 1.186,5.338 0.737,7.208 0.288,9.078 l -3.601,14.964 c 0,0 1.195,-7.68 2.39,-15.359 C -0.377,5.114 0.58,-0.159 0.166,0.745 0.066,0.298 0,0 0,0"
             style="fill:#373535;fill-opacity:1;fill-rule:nonzero;stroke:none"
             id="path310"
             inkscape:connector-curvature="0" /></g><g
           id="g312"
           transform="translate(223.9751,745.3813)"><path
             d="M 0,0 C 9.831,5.355 0.518,3.941 9.657,8.472 11.222,10.907 2.178,4.762 3.862,7.101 -1.083,2.28 -4.379,0.835 0,0"
             style="fill:#373535;fill-opacity:1;fill-rule:nonzero;stroke:none"
             id="path314"
             inkscape:connector-curvature="0" /></g><g
           id="g316"
           transform="translate(227.8374,752.4819)"><path
             d="M 0,0 C 0.795,0.771 1.622,1.612 2.468,2.564 1,1.203 0.363,0.489 0,0"
             style="fill:#373535;fill-opacity:1;fill-rule:nonzero;stroke:none"
             id="path318"
             inkscape:connector-curvature="0" /></g><g
           id="g320"
           transform="translate(765.1572,431.127)"><path
             d="m 0,0 c 0,0 0.293,1.879 0.434,3.768 0.174,1.889 0.35,3.777 0.35,3.777 L -0.228,2.697 c 0.001,0 0.095,-0.676 0.137,-1.349 C -0.045,0.674 0,0 0,0"
             style="fill:#373535;fill-opacity:1;fill-rule:nonzero;stroke:none"
             id="path322"
             inkscape:connector-curvature="0" /></g><g
           id="g324"
           transform="translate(763.4492,445.6792)"><path
             d="M 0,0 1.774,1.752 0.281,6.29 C 0.327,4.589 0.418,1.285 0,0"
             style="fill:#373535;fill-opacity:1;fill-rule:nonzero;stroke:none"
             id="path326"
             inkscape:connector-curvature="0" /></g><g
           id="g328"
           transform="translate(92.4688,358.3193)"><path
             d="M 0,0 -0.925,0.315 C -1.493,-0.972 -1.128,-2.6 -0.405,-5.861 L 0,0 z"
             style="fill:#373535;fill-opacity:1;fill-rule:nonzero;stroke:none"
             id="path330"
             inkscape:connector-curvature="0" /></g><g
           id="g332"
           transform="translate(126.604,268.4893)"><path
             d="M 0,0 -0.805,1.456 -1.751,-2.716 0,0 z"
             style="fill:#373535;fill-opacity:1;fill-rule:nonzero;stroke:none"
             id="path334"
             inkscape:connector-curvature="0" /></g><g
           id="g336"
           transform="translate(177.6895,206.1123)"><path
             d="M 0,0 C -2.11,2.511 -5.152,4.946 -7.27,7.479 -2.114,2.533 -2.041,-3.173 0,0"
             style="fill:#373535;fill-opacity:1;fill-rule:nonzero;stroke:none"
             id="path338"
             inkscape:connector-curvature="0" /></g><text
           transform="matrix(1,0,0,-0.88854087,26.8647,228.0352)"
           id="text340"><tspan
             style="font-size:1100.94970703px;font-variant:normal;font-weight:normal;font-stretch:normal;writing-mode:lr-tb;fill:#ffdf31;fill-opacity:1;fill-rule:nonzero;stroke:none;font-family:Swis721 BlkOul BT;-inkscape-font-specification:Swiss721BT-BlackOutline"
             x="0"
             y="0"
             id="tspan342">c</tspan></text>
<g
           id="g344"
           transform="translate(681.0908,408.1113)"><path
             d="m 0,0 c -8.601,-53.497 -38.705,-96.091 -90.312,-127.772 -51.607,-31.69 -117.375,-47.528 -197.289,-47.528 -94.26,0 -168.983,23.084 -224.168,69.261 -55.194,46.168 -82.787,108.263 -82.787,186.285 0,78.97 27.325,141.222 81.98,186.764 54.648,45.533 129.287,68.304 223.9,68.304 79.56,0 145.59,-15.688 198.095,-47.049 52.498,-31.369 81.796,-72.365 87.893,-122.996 l -177.936,0 c -3.587,22.606 -14.607,40.28 -33.061,53.02 -18.462,12.732 -42.384,19.106 -71.766,19.106 -44.442,0 -77.234,-12.658 -98.376,-37.974 -21.15,-25.316 -31.716,-65.043 -31.716,-119.175 0,-52.863 10.213,-92.351 30.641,-118.459 20.428,-26.114 51.423,-39.167 93,-39.167 30.818,0 56.176,6.762 76.067,20.3 19.89,13.531 32.338,32.556 37.361,57.08 L 0,0 z m -228.468,-35.824 c -15.052,-12.74 -36.555,-19.107 -64.509,-19.107 -32.977,0 -56.982,10.747 -72.035,32.243 -15.052,21.494 -22.578,55.803 -22.578,102.934 0,46.169 7.879,80.007 23.653,101.502 15.767,21.495 40.495,32.242 74.186,32.242 27.231,0 47.751,-5.896 61.552,-17.674 13.792,-11.784 21.587,-29.935 23.384,-54.452 l 233.307,0 c -2.15,65.274 -32.078,117.577 -89.775,156.909 -57.705,39.325 -133.503,58.991 -227.393,58.991 -103.575,0 -185.11,-24.764 -244.596,-74.275 -59.494,-49.52 -89.237,-117.265 -89.237,-203.243 0,-85.664 30.188,-153.566 90.581,-203.72 60.385,-50.154 142.188,-75.231 245.402,-75.231 93.176,0 168.168,19.823 224.974,59.469 56.798,39.645 87.532,93.538 92.194,161.686 l -232.231,0 c -2.873,-26.114 -11.827,-45.542 -26.879,-58.274 z"
             style="fill:none;stroke:#f7ec33;stroke-width:44.46900177;stroke-linecap:butt;stroke-linejoin:miter;stroke-miterlimit:10;stroke-opacity:1;stroke-dasharray:none"
             id="path346"
             inkscape:connector-curvature="0" /></g></g></g><text
       transform="matrix(1,0,0,-0.86791597,205.7246,211.6689)"
       id="text348"><tspan
         style="fill:#ffdf31;fill-opacity:1;fill-rule:nonzero;stroke:none;font-family:Palatino Linotype;font-variant:normal;font-weight:normal;font-stretch:normal;font-size:598.9316;writing-mode:lr;-inkscape-font-specification:PalatinoLinotype-Roman"
         x="0"
         y="0"
         id="tspan350">B</tspan></text>
<g
       id="g352"
       transform="translate(176.09421,49.196945)"><g
         id="g354"
         clip-path="url(#clipPath356)"><g
           id="g360"
           transform="translate(238.4785,552.5483)"><path
             d="m 0,0 c 6.822,-0.678 11.648,-1.483 14.476,-2.411 2.824,-0.932 5.018,-2.074 6.58,-3.426 1.559,-1.357 2.678,-3.725 3.363,-7.108 0.682,-3.387 1.216,-9.01 1.609,-16.879 0.389,-7.868 0.585,-18.064 0.585,-30.585 l 0.292,-57.617 0,-93.151 c 0,-14.893 -0.539,-36.467 -1.608,-64.725 -1.074,-28.261 -2.486,-43.236 -4.241,-44.926 -1.754,-1.693 -8.289,-4.739 -19.594,-9.137 l -2.339,-2.538 0,-8.376 2.339,-2.031 c 19.302,1.357 35.579,2.031 48.839,2.031 2.143,0 16.18,-0.254 42.113,-0.762 23.395,-0.845 37.433,-1.269 42.112,-1.269 23.003,0 42.259,1.777 57.758,5.33 15.5,3.554 30.657,9.304 45.476,17.26 14.814,7.951 27.439,17.514 37.872,28.682 10.428,11.168 17.592,22.419 21.494,33.758 3.898,11.335 5.85,22.503 5.85,33.504 0,14.043 -2.879,26.397 -8.627,37.057 -5.754,10.661 -13.6,19.33 -23.542,26.017 -9.944,6.682 -21.743,11.632 -35.387,14.848 -13.649,3.212 -30.999,5.667 -52.056,7.361 35.094,6.936 60.436,18.442 76.036,34.519 15.596,16.074 23.397,33.505 23.397,52.287 0,14.722 -4.68,27.877 -14.038,39.469 -9.359,11.589 -21.741,19.672 -37.141,24.24 -15.404,4.569 -36.263,6.853 -62.583,6.853 -6.827,0 -17.84,-0.171 -33.047,-0.507 -47.184,-1.357 -74.186,-2.031 -81.008,-2.031 -18.131,0 -43.867,0.674 -77.206,2.031 l -2.339,-1.777 0,-12.691 2.339,-1.777 L 0,0 z m 82.763,-86.044 c 0,37.902 0.877,64.469 2.632,79.699 13.841,2.538 29.829,3.807 47.961,3.807 22.226,0 39.818,-2.372 52.787,-7.107 12.963,-4.739 22.468,-11.549 28.513,-20.433 6.041,-8.883 9.066,-19.671 9.066,-32.361 0,-21.829 -7.896,-39.005 -23.688,-51.525 -15.792,-12.525 -43.867,-18.784 -84.225,-18.784 -12.283,0 -23.3,0.337 -33.046,1.016 l 0,45.688 z m 0,-153.308 0,86.553 c 12.282,0.674 22.811,1.015 31.584,1.015 52.832,0 87.195,-7.321 103.088,-21.956 15.888,-14.637 23.834,-34.138 23.834,-58.505 0,-16.244 -3.756,-31.263 -11.259,-45.052 -7.508,-13.794 -19.156,-24.581 -34.948,-32.363 -15.792,-7.785 -37.629,-11.675 -65.508,-11.675 -15.792,0 -31.196,1.523 -46.206,4.569 l -0.585,77.414 z"
             style="fill:none;stroke:#373535;stroke-width:1;stroke-linecap:butt;stroke-linejoin:miter;stroke-miterlimit:10;stroke-opacity:1;stroke-dasharray:none"
             id="path362"
             inkscape:connector-curvature="0" /></g><text
           transform="matrix(0.71345259,0,0,-1,82.9238,96.6914)"
           id="text364"><tspan
             style="font-size:813.4810791px;font-variant:normal;font-weight:normal;font-stretch:normal;writing-mode:lr-tb;fill:#ee3338;fill-opacity:1;fill-rule:nonzero;stroke:none;font-family:Palatino Linotype;-inkscape-font-specification:PalatinoLinotype-Roman"
             x="0"
             y="0"
             id="tspan366">P</tspan></text>
<g
           id="g368"
           transform="translate(97.3765,655.165)"><path
             d="m 0,0 0,-19.86 2.267,-2.781 c 20.024,-1.061 32.59,-2.519 37.691,-4.369 5.101,-1.856 8.546,-4.239 10.344,-7.15 1.793,-2.917 3.117,-8.738 3.967,-17.477 0.85,-8.738 1.368,-28.201 1.559,-58.389 l 0.567,-77.456 0,-183.907 -0.284,-83.81 c -0.19,-28.339 -0.899,-46.611 -2.125,-54.816 -1.231,-8.211 -2.834,-13.573 -4.818,-16.087 -1.983,-2.519 -5.907,-4.567 -11.76,-6.156 -5.859,-1.589 -17.571,-2.917 -35.141,-3.972 L 0,-538.613 l 0,-19.861 2.267,-3.177 c 47.609,2.123 74.625,3.177 81.049,3.177 6.045,0 33.157,-1.054 81.333,-3.177 l 2.267,3.177 0,19.861 -2.267,2.383 c -20.027,1.055 -32.589,2.582 -37.691,4.568 -5.101,1.986 -8.55,4.432 -10.343,7.349 -1.798,2.91 -3.166,8.738 -4.11,17.476 -0.947,8.739 -1.514,28.066 -1.7,57.992 l -0.283,77.456 0,183.907 c 0,78.114 0.85,127.367 2.55,147.761 20.59,9 39.484,13.506 56.678,13.506 31.549,0 55.119,-10.725 70.706,-32.174 15.586,-21.449 23.379,-50.185 23.379,-86.194 0,-35.749 -7.51,-65.08 -22.529,-87.982 -15.02,-22.908 -34.906,-34.358 -59.654,-34.358 -8.882,0 -20.403,2.246 -34.573,6.752 l -2.551,-3.972 4.818,-24.23 c 14.356,-3.711 27.391,-5.561 39.108,-5.561 15.679,0 30.792,3.377 45.342,10.129 14.546,6.753 28.906,17.937 43.075,33.564 14.17,15.622 25.222,34.557 33.156,56.801 7.935,22.244 11.903,45.282 11.903,69.114 0,28.86 -5.668,53.487 -17.004,73.881 -11.335,20.388 -25.646,34.421 -42.933,42.104 -17.286,7.677 -39.156,11.519 -65.604,11.519 -5.482,0 -19.935,-0.534 -43.359,-1.589 -22.104,-1.328 -42.039,-1.986 -59.795,-1.986 -13.036,0 -43.359,1.055 -90.968,3.178 L 0,0 z"
             style="fill:none;stroke:#fff215;stroke-width:14.52700043;stroke-linecap:butt;stroke-linejoin:miter;stroke-miterlimit:10;stroke-opacity:1;stroke-dasharray:none"
             id="path370"
             inkscape:connector-curvature="0" /></g></g></g></g></svg>